solid BarInsert
facet normal -5.431712988476539e-19 5.689113478654264e-19 -1.0
  outer loop
    vertex 37.0 34.99999999999999 0.0
    vertex 37.554518677937494 8.414110472164033 0.0
    vertex 37.5 7.999999999999999 0.0
  endloop
endfacet
facet normal -5.431712988476539e-19 5.689113478654264e-19 -1.0
  outer loop
    vertex 37.554518677937494 8.414110472164033 0.0
    vertex 37.0 34.99999999999999 0.0
    vertex 37.7143593539449 8.799999999999999 0.0
  endloop
endfacet
facet normal -5.431712988476539e-19 5.689113478654264e-19 -1.0
  outer loop
    vertex 37.7143593539449 8.799999999999999 0.0
    vertex 37.0 34.99999999999999 0.0
    vertex 43.0 19.0 0.0
  endloop
endfacet
facet normal -5.431712988476539e-19 5.689113478654264e-19 -1.0
  outer loop
    vertex 37.7143593539449 8.799999999999999 0.0
    vertex 43.0 19.0 0.0
    vertex 37.96862915010153 9.131370849898476 0.0
  endloop
endfacet
facet normal -5.431712988476539e-19 5.689113478654264e-19 -1.0
  outer loop
    vertex 37.96862915010153 9.131370849898476 0.0
    vertex 43.0 19.0 0.0
    vertex 38.300000000000004 9.385640646055101 0.0
  endloop
endfacet
facet normal -5.431712988476539e-19 5.689113478654264e-19 -1.0
  outer loop
    vertex 38.300000000000004 9.385640646055101 0.0
    vertex 43.0 19.0 0.0
    vertex 38.68588952783597 9.545481322062509 0.0
  endloop
endfacet
facet normal -5.431712988476539e-19 5.689113478654264e-19 -1.0
  outer loop
    vertex 38.68588952783597 9.545481322062509 0.0
    vertex 43.0 19.0 0.0
    vertex 39.1 9.6 0.0
  endloop
endfacet
facet normal -5.431712988476539e-19 5.689113478654264e-19 -1.0
  outer loop
    vertex 39.1 9.6 0.0
    vertex 43.0 19.0 0.0
    vertex 39.514110472164035 9.545481322062509 0.0
  endloop
endfacet
facet normal -5.431712988476539e-19 5.689113478654264e-19 -1.0
  outer loop
    vertex 39.514110472164035 9.545481322062509 0.0
    vertex 43.0 19.0 0.0
    vertex 39.9 9.385640646055101 0.0
  endloop
endfacet
facet normal -5.431712988476539e-19 5.689113478654264e-19 -1.0
  outer loop
    vertex 39.9 9.385640646055101 0.0
    vertex 43.0 19.0 0.0
    vertex 40.231370849898475 9.131370849898476 0.0
  endloop
endfacet
facet normal -5.431712988476539e-19 5.689113478654264e-19 -1.0
  outer loop
    vertex 40.231370849898475 9.131370849898476 0.0
    vertex 43.0 19.0 0.0
    vertex 40.4856406460551 8.8 0.0
  endloop
endfacet
facet normal -5.431712988476539e-19 5.689113478654264e-19 -1.0
  outer loop
    vertex 40.4856406460551 8.8 0.0
    vertex 43.0 19.0 0.0
    vertex 40.64548132206251 8.414110472164035 0.0
  endloop
endfacet
facet normal -5.431712988476539e-19 5.689113478654264e-19 -1.0
  outer loop
    vertex 40.64548132206251 8.414110472164035 0.0
    vertex 43.0 19.0 0.0
    vertex 40.7 7.999999999999999 0.0
  endloop
endfacet
facet normal -5.431712988476539e-19 5.689113478654264e-19 -1.0
  outer loop
    vertex 40.7 7.999999999999999 0.0
    vertex 43.0 19.0 0.0
    vertex 40.77645713530756 3.102222521132795 -8.81239525796218e-17
  endloop
endfacet
facet normal -5.431712988476539e-19 5.689113478654264e-19 -1.0
  outer loop
    vertex 40.77645713530756 3.102222521132795 -8.81239525796218e-17
    vertex 43.0 19.0 0.0
    vertex 41.14805029709527 3.22836140246614 -8.81239525796218e-17
  endloop
endfacet
facet normal -5.431712988476539e-19 5.689113478654264e-19 -1.0
  outer loop
    vertex 41.14805029709527 3.22836140246614 -8.81239525796218e-17
    vertex 43.0 19.0 0.0
    vertex 41.5 3.401923788646684 -8.81239525796218e-17
  endloop
endfacet
facet normal -5.431712988476539e-19 5.689113478654264e-19 -1.0
  outer loop
    vertex 41.5 3.401923788646684 -8.81239525796218e-17
    vertex 43.0 19.0 0.0
    vertex 41.82628428702616 3.619939979126295 -8.81239525796218e-17
  endloop
endfacet
facet normal -5.431712988476539e-19 5.689113478654264e-19 -1.0
  outer loop
    vertex 41.82628428702616 3.619939979126295 -8.81239525796218e-17
    vertex 43.0 19.0 0.0
    vertex 42.121320343559645 3.878679656440358 -8.81239525796218e-17
  endloop
endfacet
facet normal -5.431712988476539e-19 5.689113478654264e-19 -1.0
  outer loop
    vertex 42.121320343559645 3.878679656440358 -8.81239525796218e-17
    vertex 43.0 19.0 0.0
    vertex 42.38006002087371 4.173715712973839 -8.81239525796218e-17
  endloop
endfacet
facet normal -5.431712988476539e-19 5.689113478654264e-19 -1.0
  outer loop
    vertex 42.38006002087371 4.173715712973839 -8.81239525796218e-17
    vertex 43.0 19.0 0.0
    vertex 42.598076211353316 4.5 -8.81239525796218e-17
  endloop
endfacet
facet normal -5.431712988476539e-19 5.689113478654264e-19 -1.0
  outer loop
    vertex 42.598076211353316 4.5 -8.81239525796218e-17
    vertex 43.0 19.0 0.0
    vertex 42.77163859753386 4.85194970290473 -8.81239525796218e-17
  endloop
endfacet
facet normal -5.431712988476539e-19 5.689113478654264e-19 -1.0
  outer loop
    vertex 42.77163859753386 4.85194970290473 -8.81239525796218e-17
    vertex 43.0 19.0 0.0
    vertex 42.897777478867205 5.223542864692439 -8.81239525796218e-17
  endloop
endfacet
facet normal -5.431712988476539e-19 5.689113478654264e-19 -1.0
  outer loop
    vertex 42.897777478867205 5.223542864692439 -8.81239525796218e-17
    vertex 43.0 19.0 0.0
    vertex 42.97433458412143 5.608421423339846 -8.81239525796218e-17
  endloop
endfacet
facet normal -5.431712988476539e-19 5.689113478654264e-19 -1.0
  outer loop
    vertex 42.97433458412143 5.608421423339846 -8.81239525796218e-17
    vertex 43.0 19.0 0.0
    vertex 43.0 6.0 -8.81239525796218e-17
  endloop
endfacet
facet normal -5.431712988476539e-19 5.689113478654264e-19 -1.0
  outer loop
    vertex 37.0 34.99999999999999 0.0
    vertex 34.50000000000001 3.0 0.0
    vertex 32.0 34.99999999999999 0.0
  endloop
endfacet
facet normal -5.431712988476539e-19 5.689113478654264e-19 -1.0
  outer loop
    vertex 34.50000000000001 3.0 0.0
    vertex 37.0 34.99999999999999 0.0
    vertex 37.5 7.999999999999999 0.0
  endloop
endfacet
facet normal -5.431712988476539e-19 5.689113478654264e-19 -1.0
  outer loop
    vertex 34.50000000000001 3.0 0.0
    vertex 37.5 7.999999999999999 0.0
    vertex 37.554518677937494 7.585889527835966 0.0
  endloop
endfacet
facet normal -5.431712988476539e-19 5.689113478654264e-19 -1.0
  outer loop
    vertex 34.50000000000001 3.0 0.0
    vertex 37.554518677937494 7.585889527835966 0.0
    vertex 37.7143593539449 7.199999999999999 0.0
  endloop
endfacet
facet normal -5.431712988476539e-19 5.689113478654264e-19 -1.0
  outer loop
    vertex 34.50000000000001 3.0 0.0
    vertex 37.7143593539449 7.199999999999999 0.0
    vertex 40.0 3.0 -8.81239525796218e-17
  endloop
endfacet
facet normal -5.431712988476539e-19 5.689113478654264e-19 -1.0
  outer loop
    vertex 40.0 3.0 -8.81239525796218e-17
    vertex 37.7143593539449 7.199999999999999 0.0
    vertex 37.96862915010153 6.8686291501015235 0.0
  endloop
endfacet
facet normal -5.431712988476539e-19 5.689113478654264e-19 -1.0
  outer loop
    vertex 40.0 3.0 -8.81239525796218e-17
    vertex 37.96862915010153 6.8686291501015235 0.0
    vertex 38.300000000000004 6.614359353944898 0.0
  endloop
endfacet
facet normal -5.431712988476539e-19 5.689113478654264e-19 -1.0
  outer loop
    vertex 40.0 3.0 -8.81239525796218e-17
    vertex 38.300000000000004 6.614359353944898 0.0
    vertex 38.68588952783597 6.45451867793749 0.0
  endloop
endfacet
facet normal -5.431712988476539e-19 5.689113478654264e-19 -1.0
  outer loop
    vertex 40.0 3.0 -8.81239525796218e-17
    vertex 38.68588952783597 6.45451867793749 0.0
    vertex 39.1 6.3999999999999995 0.0
  endloop
endfacet
facet normal -5.431712988476539e-19 5.689113478654264e-19 -1.0
  outer loop
    vertex 40.0 3.0 -8.81239525796218e-17
    vertex 39.1 6.3999999999999995 0.0
    vertex 39.514110472164035 6.45451867793749 0.0
  endloop
endfacet
facet normal -5.431712988476539e-19 5.689113478654264e-19 -1.0
  outer loop
    vertex 40.0 3.0 -8.81239525796218e-17
    vertex 39.514110472164035 6.45451867793749 0.0
    vertex 39.9 6.614359353944898 0.0
  endloop
endfacet
facet normal -5.431712988476539e-19 5.689113478654264e-19 -1.0
  outer loop
    vertex 40.0 3.0 -8.81239525796218e-17
    vertex 39.9 6.614359353944898 0.0
    vertex 40.231370849898475 6.8686291501015235 0.0
  endloop
endfacet
facet normal -5.431712988476539e-19 5.689113478654264e-19 -1.0
  outer loop
    vertex 40.0 3.0 -8.81239525796218e-17
    vertex 40.231370849898475 6.8686291501015235 0.0
    vertex 40.39157857666016 3.025665415878569 -8.81239525796218e-17
  endloop
endfacet
facet normal -5.431712988476539e-19 5.689113478654264e-19 -1.0
  outer loop
    vertex 40.39157857666016 3.025665415878569 -8.81239525796218e-17
    vertex 40.231370849898475 6.8686291501015235 0.0
    vertex 40.4856406460551 7.200000000000001 0.0
  endloop
endfacet
facet normal -5.431712988476539e-19 5.689113478654264e-19 -1.0
  outer loop
    vertex 40.39157857666016 3.025665415878569 -8.81239525796218e-17
    vertex 40.4856406460551 7.200000000000001 0.0
    vertex 40.77645713530756 3.102222521132795 -8.81239525796218e-17
  endloop
endfacet
facet normal -5.431712988476539e-19 5.689113478654264e-19 -1.0
  outer loop
    vertex 40.77645713530756 3.102222521132795 -8.81239525796218e-17
    vertex 40.4856406460551 7.200000000000001 0.0
    vertex 40.64548132206251 7.585889527835968 0.0
  endloop
endfacet
facet normal -5.431712988476539e-19 5.689113478654264e-19 -1.0
  outer loop
    vertex 40.77645713530756 3.102222521132795 -8.81239525796218e-17
    vertex 40.64548132206251 7.585889527835968 0.0
    vertex 40.7 7.999999999999999 0.0
  endloop
endfacet
facet normal -5.431712988476539e-19 5.689113478654264e-19 -1.0
  outer loop
    vertex 32.0 34.99999999999999 0.0
    vertex 30.0 12.999999999999998 0.0
    vertex 30.0 19.0 0.0
  endloop
endfacet
facet normal -5.431712988476539e-19 5.689113478654264e-19 -1.0
  outer loop
    vertex 30.0 12.999999999999998 0.0
    vertex 32.0 34.99999999999999 0.0
    vertex 30.00000000000003 3.0 0.0
  endloop
endfacet
facet normal -5.431712988476539e-19 5.689113478654264e-19 -1.0
  outer loop
    vertex 30.00000000000003 3.0 0.0
    vertex 32.0 34.99999999999999 0.0
    vertex 30.00000000000003 -0.6 0.0
  endloop
endfacet
facet normal -5.431712988476539e-19 5.689113478654264e-19 -1.0
  outer loop
    vertex 30.00000000000003 -0.6 0.0
    vertex 32.0 34.99999999999999 0.0
    vertex 34.50000000000001 -0.6 0.0
  endloop
endfacet
facet normal -5.431712988476539e-19 5.689113478654264e-19 -1.0
  outer loop
    vertex 34.50000000000001 -0.6 0.0
    vertex 32.0 34.99999999999999 0.0
    vertex 34.50000000000001 3.0 0.0
  endloop
endfacet
facet normal -5.431712988476539e-19 5.689113478654264e-19 -1.0
  outer loop
    vertex 2.0024738957000414 5.5331705710028745 0.0
    vertex 5.999999999999999 -0.6 0.0
    vertex 1.9999999999999996 -0.6 0.0
  endloop
endfacet
facet normal -5.431712988476539e-19 5.689113478654264e-19 -1.0
  outer loop
    vertex 5.999999999999999 -0.6 0.0
    vertex 2.0024738957000414 5.5331705710028745 0.0
    vertex 2.080355745774466 6.060628053054697 0.0
  endloop
endfacet
facet normal -5.431712988476539e-19 5.689113478654264e-19 -1.0
  outer loop
    vertex 5.999999999999999 -0.6 0.0
    vertex 2.080355745774466 6.060628053054697 0.0
    vertex 2.232078746525535 6.571761214751877 0.0
  endloop
endfacet
facet normal -5.431712988476539e-19 5.689113478654264e-19 -1.0
  outer loop
    vertex 5.999999999999999 -0.6 0.0
    vertex 2.232078746525535 6.571761214751877 0.0
    vertex 2.4545905801361703 7.056287232470945 0.0
  endloop
endfacet
facet normal -5.431712988476539e-19 5.689113478654264e-19 -1.0
  outer loop
    vertex 5.999999999999999 -0.6 0.0
    vertex 2.4545905801361703 7.056287232470945 0.0
    vertex 2.743414820284205 7.50445855712969 0.0
  endloop
endfacet
facet normal -5.431712988476539e-19 5.689113478654264e-19 -1.0
  outer loop
    vertex 5.999999999999999 -0.6 0.0
    vertex 2.743414820284205 7.50445855712969 0.0
    vertex 3.0927409875443512 7.9072590124556505 0.0
  endloop
endfacet
facet normal -5.431712988476539e-19 5.689113478654264e-19 -1.0
  outer loop
    vertex 5.999999999999999 -0.6 0.0
    vertex 3.0927409875443512 7.9072590124556505 0.0
    vertex 3.4955414428703113 8.256585179715797 0.0
  endloop
endfacet
facet normal -5.431712988476539e-19 5.689113478654264e-19 -1.0
  outer loop
    vertex 5.999999999999999 -0.6 0.0
    vertex 3.4955414428703113 8.256585179715797 0.0
    vertex 3.9437127675290577 8.54540941986383 0.0
  endloop
endfacet
facet normal -5.431712988476539e-19 5.689113478654264e-19 -1.0
  outer loop
    vertex 5.999999999999999 -0.6 0.0
    vertex 3.9437127675290577 8.54540941986383 0.0
    vertex 4.428238785248124 8.767921253474466 0.0
  endloop
endfacet
facet normal -5.431712988476539e-19 5.689113478654264e-19 -1.0
  outer loop
    vertex 5.999999999999999 -0.6 0.0
    vertex 4.428238785248124 8.767921253474466 0.0
    vertex 4.939371946945304 8.919644254225535 0.0
  endloop
endfacet
facet normal -5.431712988476539e-19 5.689113478654264e-19 -1.0
  outer loop
    vertex 5.999999999999999 -0.6 0.0
    vertex 4.939371946945304 8.919644254225535 0.0
    vertex 5.466829428997126 8.99752610429996 0.0
  endloop
endfacet
facet normal -5.431712988476539e-19 5.689113478654264e-19 -1.0
  outer loop
    vertex 5.999999999999999 -0.6 0.0
    vertex 5.466829428997126 8.99752610429996 0.0
    vertex 6.0 3.0 0.0
  endloop
endfacet
facet normal -5.431712988476539e-19 5.689113478654264e-19 -1.0
  outer loop
    vertex 6.0 3.0 0.0
    vertex 5.466829428997126 8.99752610429996 0.0
    vertex 26.000000000000004 9.0 0.0
  endloop
endfacet
facet normal -5.431712988476539e-19 5.689113478654264e-19 -1.0
  outer loop
    vertex 6.0 3.0 0.0
    vertex 26.000000000000004 9.0 0.0
    vertex 13.5 3.0000000000000027 0.0
  endloop
endfacet
facet normal -5.431712988476539e-19 5.689113478654264e-19 -1.0
  outer loop
    vertex 13.5 3.0000000000000027 0.0
    vertex 26.000000000000004 9.0 0.0
    vertex 23.500000000000004 3.000000000000003 0.0
  endloop
endfacet
facet normal -5.431712988476539e-19 5.689113478654264e-19 -1.0
  outer loop
    vertex 13.5 3.0000000000000027 0.0
    vertex 23.500000000000004 3.000000000000003 0.0
    vertex 23.5 -0.5999999999999968 0.0
  endloop
endfacet
facet normal -5.431712988476539e-19 5.689113478654264e-19 -1.0
  outer loop
    vertex 23.500000000000004 3.000000000000003 0.0
    vertex 26.000000000000004 9.0 0.0
    vertex 30.00000000000003 3.0 0.0
  endloop
endfacet
facet normal -5.431712988476539e-19 5.689113478654264e-19 -1.0
  outer loop
    vertex 30.00000000000003 3.0 0.0
    vertex 26.000000000000004 9.0 0.0
    vertex 26.522104768880208 9.034220554504758 0.0
  endloop
endfacet
facet normal -5.431712988476539e-19 5.689113478654264e-19 -1.0
  outer loop
    vertex 30.00000000000003 3.0 0.0
    vertex 26.522104768880208 9.034220554504758 0.0
    vertex 27.035276180410083 9.136296694843727 0.0
  endloop
endfacet
facet normal -5.431712988476539e-19 5.689113478654264e-19 -1.0
  outer loop
    vertex 30.00000000000003 3.0 0.0
    vertex 27.035276180410083 9.136296694843727 0.0
    vertex 27.530733729460362 9.304481869954854 0.0
  endloop
endfacet
facet normal -5.431712988476539e-19 5.689113478654264e-19 -1.0
  outer loop
    vertex 30.00000000000003 3.0 0.0
    vertex 27.530733729460362 9.304481869954854 0.0
    vertex 28.000000000000004 9.535898384862247 0.0
  endloop
endfacet
facet normal -5.431712988476539e-19 5.689113478654264e-19 -1.0
  outer loop
    vertex 30.00000000000003 3.0 0.0
    vertex 28.000000000000004 9.535898384862247 0.0
    vertex 28.435045716034885 9.82658663883506 0.0
  endloop
endfacet
facet normal -5.431712988476539e-19 5.689113478654264e-19 -1.0
  outer loop
    vertex 30.00000000000003 3.0 0.0
    vertex 28.435045716034885 9.82658663883506 0.0
    vertex 28.828427124746195 10.17157287525381 0.0
  endloop
endfacet
facet normal -5.431712988476539e-19 5.689113478654264e-19 -1.0
  outer loop
    vertex 30.00000000000003 3.0 0.0
    vertex 28.828427124746195 10.17157287525381 0.0
    vertex 29.17341336116494 10.564954283965118 0.0
  endloop
endfacet
facet normal -5.431712988476539e-19 5.689113478654264e-19 -1.0
  outer loop
    vertex 30.00000000000003 3.0 0.0
    vertex 29.17341336116494 10.564954283965118 0.0
    vertex 29.464101615137753 11.0 0.0
  endloop
endfacet
facet normal -5.431712988476539e-19 5.689113478654264e-19 -1.0
  outer loop
    vertex 30.00000000000003 3.0 0.0
    vertex 29.464101615137753 11.0 0.0
    vertex 29.69551813004515 11.469266270539642 0.0
  endloop
endfacet
facet normal -5.431712988476539e-19 5.689113478654264e-19 -1.0
  outer loop
    vertex 30.00000000000003 3.0 0.0
    vertex 29.69551813004515 11.469266270539642 0.0
    vertex 29.863703305156275 11.964723819589915 0.0
  endloop
endfacet
facet normal -5.431712988476539e-19 5.689113478654264e-19 -1.0
  outer loop
    vertex 30.00000000000003 3.0 0.0
    vertex 29.863703305156275 11.964723819589915 0.0
    vertex 29.965779445495244 12.477895231119792 0.0
  endloop
endfacet
facet normal -5.431712988476539e-19 5.689113478654264e-19 -1.0
  outer loop
    vertex 30.00000000000003 3.0 0.0
    vertex 29.965779445495244 12.477895231119792 0.0
    vertex 30.0 12.999999999999998 0.0
  endloop
endfacet
facet normal -5.431712988476539e-19 5.689113478654264e-19 -1.0
  outer loop
    vertex 23.5 -0.5999999999999968 0.0
    vertex 13.499999999999998 -0.5999999999999975 0.0
    vertex 13.5 3.0000000000000027 0.0
  endloop
endfacet
facet normal -0.9999999186490487 0.0004033632311621505 0.0
  outer loop
    vertex 2.0024738957000414 5.5331705710028745 1.2
    vertex 1.9999999999999996 -0.6 0.0
    vertex 1.9999999999999996 -0.6 1.2
  endloop
endfacet
facet normal -0.9999999186490487 0.0004033632311621505 0.0
  outer loop
    vertex 1.9999999999999996 -0.6 0.0
    vertex 2.0024738957000414 5.5331705710028745 1.2
    vertex 2.0024738957000414 5.5331705710028745 0.0
  endloop
endfacet
facet normal 0.0 -1.0 0.0
  outer loop
    vertex 5.999999999999999 -0.6 1.2
    vertex 1.9999999999999996 -0.6 0.0
    vertex 5.999999999999999 -0.6 0.0
  endloop
endfacet
facet normal 0.0 -1.0 0.0
  outer loop
    vertex 1.9999999999999996 -0.6 0.0
    vertex 5.999999999999999 -0.6 1.2
    vertex 1.9999999999999996 -0.6 1.2
  endloop
endfacet
facet normal 1.0 -1.9583100573249288e-16 0.0
  outer loop
    vertex 6.0 3.0 0.0
    vertex 5.999999999999999 -0.6 1.2
    vertex 5.999999999999999 -0.6 0.0
  endloop
endfacet
facet normal 1.0 -1.9583100573249288e-16 0.0
  outer loop
    vertex 5.999999999999999 -0.6 1.2
    vertex 6.0 3.0 0.0
    vertex 6.0 3.0 1.2
  endloop
endfacet
facet normal 3.3571029554141636e-17 -1.0 0.0
  outer loop
    vertex 13.5 3.0000000000000027 1.2
    vertex 6.0 3.0 0.0
    vertex 13.5 3.0000000000000027 0.0
  endloop
endfacet
facet normal 3.3571029554141636e-17 -1.0 0.0
  outer loop
    vertex 6.0 3.0 0.0
    vertex 13.5 3.0000000000000027 1.2
    vertex 6.0 3.0 1.2
  endloop
endfacet
facet normal -1.0 7.833240229299714e-16 0.0
  outer loop
    vertex 13.5 3.0000000000000027 1.2
    vertex 13.499999999999998 -0.5999999999999975 0.0
    vertex 13.499999999999998 -0.5999999999999975 1.2
  endloop
endfacet
facet normal -1.0 7.833240229299714e-16 0.0
  outer loop
    vertex 13.499999999999998 -0.5999999999999975 0.0
    vertex 13.5 3.0000000000000027 1.2
    vertex 13.5 3.0000000000000027 0.0
  endloop
endfacet
facet normal 0.0 -1.0 0.0
  outer loop
    vertex 23.5 -0.5999999999999968 1.2
    vertex 13.499999999999998 -0.5999999999999975 0.0
    vertex 23.5 -0.5999999999999968 0.0
  endloop
endfacet
facet normal 0.0 -1.0 0.0
  outer loop
    vertex 13.499999999999998 -0.5999999999999975 0.0
    vertex 23.5 -0.5999999999999968 1.2
    vertex 13.499999999999998 -0.5999999999999975 1.2
  endloop
endfacet
facet normal 1.0 -1.5666480458599429e-15 0.0
  outer loop
    vertex 23.500000000000004 3.000000000000003 0.0
    vertex 23.5 -0.5999999999999968 1.2
    vertex 23.5 -0.5999999999999968 0.0
  endloop
endfacet
facet normal 1.0 -1.5666480458599429e-15 0.0
  outer loop
    vertex 23.5 -0.5999999999999968 1.2
    vertex 23.500000000000004 3.000000000000003 0.0
    vertex 23.500000000000004 3.000000000000003 1.2
  endloop
endfacet
facet normal 0.0 -1.0 0.0
  outer loop
    vertex 30.00000000000003 3.0 1.2
    vertex 23.500000000000004 3.000000000000003 0.0
    vertex 30.00000000000003 3.0 0.0
  endloop
endfacet
facet normal 0.0 -1.0 0.0
  outer loop
    vertex 23.500000000000004 3.000000000000003 0.0
    vertex 30.00000000000003 3.0 1.2
    vertex 23.500000000000004 3.000000000000003 1.2
  endloop
endfacet
facet normal -1.0 -0.0 -0.0
  outer loop
    vertex 30.00000000000003 3.0 1.2
    vertex 30.00000000000003 -0.6 0.0
    vertex 30.00000000000003 -0.6 1.2
  endloop
endfacet
facet normal -1.0 -0.0 -0.0
  outer loop
    vertex 30.00000000000003 -0.6 0.0
    vertex 30.00000000000003 3.0 1.2
    vertex 30.00000000000003 3.0 0.0
  endloop
endfacet
facet normal 1.0 7.833240229299715e-16 -2.3499720687899152e-15
  outer loop
    vertex 34.50000000000001 3.0 0.0
    vertex 34.500000000000014 -0.6 1.2
    vertex 34.50000000000001 -0.6 0.0
  endloop
endfacet
facet normal 1.0 7.833240229299715e-16 -2.3499720687899152e-15
  outer loop
    vertex 34.500000000000014 -0.6 1.2
    vertex 34.50000000000001 3.0 0.0
    vertex 34.50000000000001 3.0 1.2
  endloop
endfacet
facet normal 0.0 -1.0 0.0
  outer loop
    vertex 40.0 3.0 1.2
    vertex 34.50000000000001 3.0 0.0
    vertex 40.0 3.0 -8.81239525796218e-17
  endloop
endfacet
facet normal 0.0 -1.0 0.0
  outer loop
    vertex 34.50000000000001 3.0 0.0
    vertex 40.0 3.0 1.2
    vertex 34.50000000000001 3.0 1.2
  endloop
endfacet
facet normal 1.0 0.0 0.0
  outer loop
    vertex 43.0 19.0 0.0
    vertex 43.0 6.0 1.2
    vertex 43.0 6.0 -8.81239525796218e-17
  endloop
endfacet
facet normal 1.0 0.0 0.0
  outer loop
    vertex 43.0 6.0 1.2
    vertex 43.0 19.0 0.0
    vertex 43.0 19.0 1.2
  endloop
endfacet
facet normal 0.9363291775690445 0.35112344158839187 0.0
  outer loop
    vertex 37.0 34.99999999999999 0.0
    vertex 43.0 19.0 1.2
    vertex 43.0 19.0 0.0
  endloop
endfacet
facet normal 0.9363291775690445 0.35112344158839187 0.0
  outer loop
    vertex 43.0 19.0 1.2
    vertex 37.0 34.99999999999999 0.0
    vertex 37.0 34.99999999999999 1.2
  endloop
endfacet
facet normal 0.0 1.0 0.0
  outer loop
    vertex 32.0 34.99999999999999 1.2
    vertex 37.0 34.99999999999999 0.0
    vertex 32.0 34.99999999999999 0.0
  endloop
endfacet
facet normal 0.0 1.0 0.0
  outer loop
    vertex 37.0 34.99999999999999 0.0
    vertex 32.0 34.99999999999999 1.2
    vertex 37.0 34.99999999999999 1.2
  endloop
endfacet
facet normal -0.9922778767136676 0.12403473458920863 0.0
  outer loop
    vertex 32.0 34.99999999999999 1.2
    vertex 30.0 19.0 0.0
    vertex 30.0 19.0 1.2
  endloop
endfacet
facet normal -0.9922778767136676 0.12403473458920863 0.0
  outer loop
    vertex 30.0 19.0 0.0
    vertex 32.0 34.99999999999999 1.2
    vertex 32.0 34.99999999999999 0.0
  endloop
endfacet
facet normal -1.0 -0.0 -0.0
  outer loop
    vertex 30.0 19.0 1.2
    vertex 30.0 12.999999999999998 0.0
    vertex 30.0 12.999999999999998 1.2
  endloop
endfacet
facet normal -1.0 -0.0 -0.0
  outer loop
    vertex 30.0 12.999999999999998 0.0
    vertex 30.0 19.0 1.2
    vertex 30.0 19.0 0.0
  endloop
endfacet
facet normal -0.9978589232386037 0.06540312923014098 0.0
  outer loop
    vertex 30.0 12.999999999999998 1.2
    vertex 29.965779445495244 12.477895231119792 0.0
    vertex 29.965779445495244 12.477895231119792 1.2
  endloop
endfacet
facet normal -0.9978589232386037 0.06540312923014098 0.0
  outer loop
    vertex 29.965779445495244 12.477895231119792 0.0
    vertex 30.0 12.999999999999998 1.2
    vertex 30.0 12.999999999999998 0.0
  endloop
endfacet
facet normal -0.98078528040323 0.1950903220161308 0.0
  outer loop
    vertex 29.965779445495244 12.477895231119792 1.2
    vertex 29.863703305156275 11.964723819589915 0.0
    vertex 29.863703305156275 11.964723819589915 1.2
  endloop
endfacet
facet normal -0.98078528040323 0.1950903220161308 0.0
  outer loop
    vertex 29.863703305156275 11.964723819589915 0.0
    vertex 29.965779445495244 12.477895231119792 1.2
    vertex 29.965779445495244 12.477895231119792 0.0
  endloop
endfacet
facet normal -0.9469301294951076 0.3214394653031558 0.0
  outer loop
    vertex 29.863703305156275 11.964723819589915 1.2
    vertex 29.69551813004515 11.469266270539642 0.0
    vertex 29.69551813004515 11.469266270539642 1.2
  endloop
endfacet
facet normal -0.9469301294951076 0.3214394653031558 0.0
  outer loop
    vertex 29.69551813004515 11.469266270539642 0.0
    vertex 29.863703305156275 11.964723819589915 1.2
    vertex 29.863703305156275 11.964723819589915 0.0
  endloop
endfacet
facet normal -0.8968727415326845 0.44228869021900924 0.0
  outer loop
    vertex 29.69551813004515 11.469266270539642 1.2
    vertex 29.464101615137753 11.0 0.0
    vertex 29.464101615137753 11.0 1.2
  endloop
endfacet
facet normal -0.8968727415326845 0.44228869021900924 0.0
  outer loop
    vertex 29.464101615137753 11.0 0.0
    vertex 29.69551813004515 11.469266270539642 1.2
    vertex 29.69551813004515 11.469266270539642 0.0
  endloop
endfacet
facet normal -0.8314696123025453 0.5555702330196023 0.0
  outer loop
    vertex 29.464101615137753 11.0 1.2
    vertex 29.17341336116494 10.564954283965118 0.0
    vertex 29.17341336116494 10.564954283965118 1.2
  endloop
endfacet
facet normal -0.8314696123025453 0.5555702330196023 0.0
  outer loop
    vertex 29.17341336116494 10.564954283965118 0.0
    vertex 29.464101615137753 11.0 1.2
    vertex 29.464101615137753 11.0 0.0
  endloop
endfacet
facet normal -0.7518398074789818 0.6593458151000637 0.0
  outer loop
    vertex 29.17341336116494 10.564954283965118 1.2
    vertex 28.828427124746195 10.17157287525381 0.0
    vertex 28.828427124746195 10.17157287525381 1.2
  endloop
endfacet
facet normal -0.7518398074789818 0.6593458151000637 0.0
  outer loop
    vertex 28.828427124746195 10.17157287525381 0.0
    vertex 29.17341336116494 10.564954283965118 1.2
    vertex 29.17341336116494 10.564954283965118 0.0
  endloop
endfacet
facet normal -0.6593458151000667 0.7518398074789792 0.0
  outer loop
    vertex 28.435045716034885 9.82658663883506 1.2
    vertex 28.828427124746195 10.17157287525381 0.0
    vertex 28.435045716034885 9.82658663883506 0.0
  endloop
endfacet
facet normal -0.6593458151000667 0.7518398074789792 0.0
  outer loop
    vertex 28.828427124746195 10.17157287525381 0.0
    vertex 28.435045716034885 9.82658663883506 1.2
    vertex 28.828427124746195 10.17157287525381 1.2
  endloop
endfacet
facet normal -0.5555702330196041 0.8314696123025441 0.0
  outer loop
    vertex 28.000000000000004 9.535898384862247 1.2
    vertex 28.435045716034885 9.82658663883506 0.0
    vertex 28.000000000000004 9.535898384862247 0.0
  endloop
endfacet
facet normal -0.5555702330196041 0.8314696123025441 0.0
  outer loop
    vertex 28.435045716034885 9.82658663883506 0.0
    vertex 28.000000000000004 9.535898384862247 1.2
    vertex 28.435045716034885 9.82658663883506 1.2
  endloop
endfacet
facet normal -0.44228869021899836 0.8968727415326897 0.0
  outer loop
    vertex 27.530733729460362 9.304481869954854 1.2
    vertex 28.000000000000004 9.535898384862247 0.0
    vertex 27.530733729460362 9.304481869954854 0.0
  endloop
endfacet
facet normal -0.44228869021899836 0.8968727415326897 0.0
  outer loop
    vertex 28.000000000000004 9.535898384862247 0.0
    vertex 27.530733729460362 9.304481869954854 1.2
    vertex 28.000000000000004 9.535898384862247 1.2
  endloop
endfacet
facet normal -0.3214394653031615 0.9469301294951058 0.0
  outer loop
    vertex 27.035276180410083 9.136296694843727 1.2
    vertex 27.530733729460362 9.304481869954854 0.0
    vertex 27.035276180410083 9.136296694843727 0.0
  endloop
endfacet
facet normal -0.3214394653031615 0.9469301294951058 0.0
  outer loop
    vertex 27.530733729460362 9.304481869954854 0.0
    vertex 27.035276180410083 9.136296694843727 1.2
    vertex 27.530733729460362 9.304481869954854 1.2
  endloop
endfacet
facet normal -0.19509032201613127 0.9807852804032299 0.0
  outer loop
    vertex 26.522104768880208 9.034220554504758 1.2
    vertex 27.035276180410083 9.136296694843727 0.0
    vertex 26.522104768880208 9.034220554504758 0.0
  endloop
endfacet
facet normal -0.19509032201613127 0.9807852804032299 0.0
  outer loop
    vertex 27.035276180410083 9.136296694843727 0.0
    vertex 26.522104768880208 9.034220554504758 1.2
    vertex 27.035276180410083 9.136296694843727 1.2
  endloop
endfacet
facet normal -0.06540312923014116 0.9978589232386036 0.0
  outer loop
    vertex 26.000000000000004 9.0 1.2
    vertex 26.522104768880208 9.034220554504758 0.0
    vertex 26.000000000000004 9.0 0.0
  endloop
endfacet
facet normal -0.06540312923014116 0.9978589232386036 0.0
  outer loop
    vertex 26.522104768880208 9.034220554504758 0.0
    vertex 26.000000000000004 9.0 1.2
    vertex 26.522104768880208 9.034220554504758 1.2
  endloop
endfacet
facet normal -0.0001204828876052567 0.999999992741937 0.0
  outer loop
    vertex 5.466829428997126 8.99752610429996 1.2
    vertex 26.000000000000004 9.0 0.0
    vertex 5.466829428997126 8.99752610429996 0.0
  endloop
endfacet
facet normal -0.0001204828876052567 0.999999992741937 0.0
  outer loop
    vertex 26.000000000000004 9.0 0.0
    vertex 5.466829428997126 8.99752610429996 1.2
    vertex 26.000000000000004 9.0 1.2
  endloop
endfacet
facet normal -0.14607147496832992 0.9892740389803913 0.0
  outer loop
    vertex 4.939371946945304 8.919644254225535 1.2
    vertex 5.466829428997126 8.99752610429996 0.0
    vertex 4.939371946945304 8.919644254225535 0.0
  endloop
endfacet
facet normal -0.14607147496832992 0.9892740389803913 0.0
  outer loop
    vertex 5.466829428997126 8.99752610429996 0.0
    vertex 4.939371946945304 8.919644254225535 1.2
    vertex 5.466829428997126 8.99752610429996 1.2
  endloop
endfacet
facet normal -0.2845644073060815 0.9586569240841786 0.0
  outer loop
    vertex 4.428238785248124 8.767921253474466 1.2
    vertex 4.939371946945304 8.919644254225535 0.0
    vertex 4.428238785248124 8.767921253474466 0.0
  endloop
endfacet
facet normal -0.2845644073060815 0.9586569240841786 0.0
  outer loop
    vertex 4.939371946945304 8.919644254225535 0.0
    vertex 4.428238785248124 8.767921253474466 1.2
    vertex 4.939371946945304 8.919644254225535 1.2
  endloop
endfacet
facet normal -0.41733255825783994 0.9087538367555686 0.0
  outer loop
    vertex 3.9437127675290577 8.54540941986383 1.2
    vertex 4.428238785248124 8.767921253474466 0.0
    vertex 3.9437127675290577 8.54540941986383 0.0
  endloop
endfacet
facet normal -0.41733255825783994 0.9087538367555686 0.0
  outer loop
    vertex 4.428238785248124 8.767921253474466 0.0
    vertex 3.9437127675290577 8.54540941986383 1.2
    vertex 4.428238785248124 8.767921253474466 1.2
  endloop
endfacet
facet normal -0.5417049379889447 0.8405687123361145 0.0
  outer loop
    vertex 3.4955414428703113 8.256585179715797 1.2
    vertex 3.9437127675290577 8.54540941986383 0.0
    vertex 3.4955414428703113 8.256585179715797 0.0
  endloop
endfacet
facet normal -0.5417049379889447 0.8405687123361145 0.0
  outer loop
    vertex 3.9437127675290577 8.54540941986383 0.0
    vertex 3.4955414428703113 8.256585179715797 1.2
    vertex 3.9437127675290577 8.54540941986383 1.2
  endloop
endfacet
facet normal -0.6551794602717018 0.7554732787055287 0.0
  outer loop
    vertex 3.0927409875443512 7.9072590124556505 1.2
    vertex 3.4955414428703113 8.256585179715797 0.0
    vertex 3.0927409875443512 7.9072590124556505 0.0
  endloop
endfacet
facet normal -0.6551794602717018 0.7554732787055287 0.0
  outer loop
    vertex 3.4955414428703113 8.256585179715797 0.0
    vertex 3.0927409875443512 7.9072590124556505 1.2
    vertex 3.4955414428703113 8.256585179715797 1.2
  endloop
endfacet
facet normal -0.7554732787055294 0.6551794602717012 0.0
  outer loop
    vertex 3.0927409875443512 7.9072590124556505 1.2
    vertex 2.743414820284205 7.50445855712969 0.0
    vertex 2.743414820284205 7.50445855712969 1.2
  endloop
endfacet
facet normal -0.7554732787055294 0.6551794602717012 0.0
  outer loop
    vertex 2.743414820284205 7.50445855712969 0.0
    vertex 3.0927409875443512 7.9072590124556505 1.2
    vertex 3.0927409875443512 7.9072590124556505 0.0
  endloop
endfacet
facet normal -0.8405687123361125 0.5417049379889478 0.0
  outer loop
    vertex 2.743414820284205 7.50445855712969 1.2
    vertex 2.4545905801361703 7.056287232470945 0.0
    vertex 2.4545905801361703 7.056287232470945 1.2
  endloop
endfacet
facet normal -0.8405687123361125 0.5417049379889478 0.0
  outer loop
    vertex 2.4545905801361703 7.056287232470945 0.0
    vertex 2.743414820284205 7.50445855712969 1.2
    vertex 2.743414820284205 7.50445855712969 0.0
  endloop
endfacet
facet normal -0.908753836755569 0.41733255825783894 0.0
  outer loop
    vertex 2.4545905801361703 7.056287232470945 1.2
    vertex 2.232078746525535 6.571761214751877 0.0
    vertex 2.232078746525535 6.571761214751877 1.2
  endloop
endfacet
facet normal -0.908753836755569 0.41733255825783894 0.0
  outer loop
    vertex 2.232078746525535 6.571761214751877 0.0
    vertex 2.4545905801361703 7.056287232470945 1.2
    vertex 2.4545905801361703 7.056287232470945 0.0
  endloop
endfacet
facet normal -0.9586569240841788 0.2845644073060806 0.0
  outer loop
    vertex 2.232078746525535 6.571761214751877 1.2
    vertex 2.080355745774466 6.060628053054697 0.0
    vertex 2.080355745774466 6.060628053054697 1.2
  endloop
endfacet
facet normal -0.9586569240841788 0.2845644073060806 0.0
  outer loop
    vertex 2.080355745774466 6.060628053054697 0.0
    vertex 2.232078746525535 6.571761214751877 1.2
    vertex 2.232078746525535 6.571761214751877 0.0
  endloop
endfacet
facet normal -0.9892740389803911 0.1460714749683304 0.0
  outer loop
    vertex 2.080355745774466 6.060628053054697 1.2
    vertex 2.0024738957000414 5.5331705710028745 0.0
    vertex 2.0024738957000414 5.5331705710028745 1.2
  endloop
endfacet
facet normal -0.9892740389803911 0.1460714749683304 0.0
  outer loop
    vertex 2.0024738957000414 5.5331705710028745 0.0
    vertex 2.080355745774466 6.060628053054697 1.2
    vertex 2.080355745774466 6.060628053054697 0.0
  endloop
endfacet
facet normal 0.13052619222005282 -0.9914448613738104 0.0
  outer loop
    vertex 39.1 9.6 1.2
    vertex 38.68588952783597 9.545481322062509 0.0
    vertex 39.1 9.6 0.0
  endloop
endfacet
facet normal 0.13052619222005282 -0.9914448613738104 0.0
  outer loop
    vertex 38.68588952783597 9.545481322062509 0.0
    vertex 39.1 9.6 1.2
    vertex 38.68588952783597 9.545481322062509 1.2
  endloop
endfacet
facet normal -0.13052619222005282 -0.9914448613738104 -0.0
  outer loop
    vertex 39.514110472164035 9.545481322062509 1.2
    vertex 39.1 9.6 0.0
    vertex 39.514110472164035 9.545481322062509 0.0
  endloop
endfacet
facet normal -0.13052619222005282 -0.9914448613738104 -0.0
  outer loop
    vertex 39.1 9.6 0.0
    vertex 39.514110472164035 9.545481322062509 1.2
    vertex 39.1 9.6 1.2
  endloop
endfacet
facet normal -0.38268343236508956 -0.9238795325112867 -0.0
  outer loop
    vertex 39.9 9.385640646055101 1.2
    vertex 39.514110472164035 9.545481322062509 0.0
    vertex 39.9 9.385640646055101 0.0
  endloop
endfacet
facet normal -0.38268343236508956 -0.9238795325112867 -0.0
  outer loop
    vertex 39.514110472164035 9.545481322062509 0.0
    vertex 39.9 9.385640646055101 1.2
    vertex 39.514110472164035 9.545481322062509 1.2
  endloop
endfacet
facet normal -0.6087614290087179 -0.7933533402912373 -0.0
  outer loop
    vertex 40.231370849898475 9.131370849898476 1.2
    vertex 39.9 9.385640646055101 0.0
    vertex 40.231370849898475 9.131370849898476 0.0
  endloop
endfacet
facet normal -0.6087614290087179 -0.7933533402912373 -0.0
  outer loop
    vertex 39.9 9.385640646055101 0.0
    vertex 40.231370849898475 9.131370849898476 1.2
    vertex 39.9 9.385640646055101 1.2
  endloop
endfacet
facet normal -0.7933533402912344 -0.6087614290087217 -0.0
  outer loop
    vertex 40.231370849898475 9.131370849898476 1.2
    vertex 40.4856406460551 8.8 0.0
    vertex 40.4856406460551 8.8 1.2
  endloop
endfacet
facet normal -0.7933533402912344 -0.6087614290087217 -0.0
  outer loop
    vertex 40.4856406460551 8.8 0.0
    vertex 40.231370849898475 9.131370849898476 1.2
    vertex 40.231370849898475 9.131370849898476 0.0
  endloop
endfacet
facet normal -0.9238795325112881 -0.3826834323650867 -0.0
  outer loop
    vertex 40.4856406460551 8.8 1.2
    vertex 40.64548132206251 8.414110472164035 0.0
    vertex 40.64548132206251 8.414110472164035 1.2
  endloop
endfacet
facet normal -0.9238795325112881 -0.3826834323650867 -0.0
  outer loop
    vertex 40.64548132206251 8.414110472164035 0.0
    vertex 40.4856406460551 8.8 1.2
    vertex 40.4856406460551 8.8 0.0
  endloop
endfacet
facet normal -0.991444861373809 -0.13052619222006187 -0.0
  outer loop
    vertex 40.64548132206251 8.414110472164035 1.2
    vertex 40.7 7.999999999999999 0.0
    vertex 40.7 7.999999999999999 1.2
  endloop
endfacet
facet normal -0.991444861373809 -0.13052619222006187 -0.0
  outer loop
    vertex 40.7 7.999999999999999 0.0
    vertex 40.64548132206251 8.414110472164035 1.2
    vertex 40.64548132206251 8.414110472164035 0.0
  endloop
endfacet
facet normal -0.991444861373809 0.1305261922200628 0.0
  outer loop
    vertex 40.7 7.999999999999999 1.2
    vertex 40.64548132206251 7.585889527835968 0.0
    vertex 40.64548132206251 7.585889527835968 1.2
  endloop
endfacet
facet normal -0.991444861373809 0.1305261922200628 0.0
  outer loop
    vertex 40.64548132206251 7.585889527835968 0.0
    vertex 40.7 7.999999999999999 1.2
    vertex 40.7 7.999999999999999 0.0
  endloop
endfacet
facet normal -0.9238795325112881 0.3826834323650867 0.0
  outer loop
    vertex 40.64548132206251 7.585889527835968 1.2
    vertex 40.4856406460551 7.200000000000001 0.0
    vertex 40.4856406460551 7.200000000000001 1.2
  endloop
endfacet
facet normal -0.9238795325112881 0.3826834323650867 0.0
  outer loop
    vertex 40.4856406460551 7.200000000000001 0.0
    vertex 40.64548132206251 7.585889527835968 1.2
    vertex 40.64548132206251 7.585889527835968 0.0
  endloop
endfacet
facet normal -0.7933533402912356 0.60876142900872 0.0
  outer loop
    vertex 40.4856406460551 7.200000000000001 1.2
    vertex 40.231370849898475 6.8686291501015235 0.0
    vertex 40.231370849898475 6.8686291501015235 1.2
  endloop
endfacet
facet normal -0.7933533402912356 0.60876142900872 0.0
  outer loop
    vertex 40.231370849898475 6.8686291501015235 0.0
    vertex 40.4856406460551 7.200000000000001 1.2
    vertex 40.4856406460551 7.200000000000001 0.0
  endloop
endfacet
facet normal -0.60876142900872 0.7933533402912356 0.0
  outer loop
    vertex 39.9 6.614359353944898 1.2
    vertex 40.231370849898475 6.8686291501015235 0.0
    vertex 39.9 6.614359353944898 0.0
  endloop
endfacet
facet normal -0.60876142900872 0.7933533402912356 0.0
  outer loop
    vertex 40.231370849898475 6.8686291501015235 0.0
    vertex 39.9 6.614359353944898 1.2
    vertex 40.231370849898475 6.8686291501015235 1.2
  endloop
endfacet
facet normal -0.38268343236508956 0.9238795325112867 0.0
  outer loop
    vertex 39.514110472164035 6.45451867793749 1.2
    vertex 39.9 6.614359353944898 0.0
    vertex 39.514110472164035 6.45451867793749 0.0
  endloop
endfacet
facet normal -0.38268343236508956 0.9238795325112867 0.0
  outer loop
    vertex 39.9 6.614359353944898 0.0
    vertex 39.514110472164035 6.45451867793749 1.2
    vertex 39.9 6.614359353944898 1.2
  endloop
endfacet
facet normal -0.13052619222005282 0.9914448613738104 0.0
  outer loop
    vertex 39.1 6.3999999999999995 1.2
    vertex 39.514110472164035 6.45451867793749 0.0
    vertex 39.1 6.3999999999999995 0.0
  endloop
endfacet
facet normal -0.13052619222005282 0.9914448613738104 0.0
  outer loop
    vertex 39.514110472164035 6.45451867793749 0.0
    vertex 39.1 6.3999999999999995 1.2
    vertex 39.514110472164035 6.45451867793749 1.2
  endloop
endfacet
facet normal 0.13052619222005282 0.9914448613738104 0.0
  outer loop
    vertex 38.68588952783597 6.45451867793749 1.2
    vertex 39.1 6.3999999999999995 0.0
    vertex 38.68588952783597 6.45451867793749 0.0
  endloop
endfacet
facet normal 0.13052619222005282 0.9914448613738104 0.0
  outer loop
    vertex 39.1 6.3999999999999995 0.0
    vertex 38.68588952783597 6.45451867793749 1.2
    vertex 39.1 6.3999999999999995 1.2
  endloop
endfacet
facet normal 0.38268343236508956 0.9238795325112867 0.0
  outer loop
    vertex 38.300000000000004 6.614359353944898 1.2
    vertex 38.68588952783597 6.45451867793749 0.0
    vertex 38.300000000000004 6.614359353944898 0.0
  endloop
endfacet
facet normal 0.38268343236508956 0.9238795325112867 0.0
  outer loop
    vertex 38.68588952783597 6.45451867793749 0.0
    vertex 38.300000000000004 6.614359353944898 1.2
    vertex 38.68588952783597 6.45451867793749 1.2
  endloop
endfacet
facet normal 0.60876142900872 0.7933533402912356 0.0
  outer loop
    vertex 37.96862915010153 6.8686291501015235 1.2
    vertex 38.300000000000004 6.614359353944898 0.0
    vertex 37.96862915010153 6.8686291501015235 0.0
  endloop
endfacet
facet normal 0.60876142900872 0.7933533402912356 0.0
  outer loop
    vertex 38.300000000000004 6.614359353944898 0.0
    vertex 37.96862915010153 6.8686291501015235 1.2
    vertex 38.300000000000004 6.614359353944898 1.2
  endloop
endfacet
facet normal 0.7933533402912344 0.6087614290087217 0.0
  outer loop
    vertex 37.7143593539449 7.199999999999999 0.0
    vertex 37.96862915010153 6.8686291501015235 1.2
    vertex 37.96862915010153 6.8686291501015235 0.0
  endloop
endfacet
facet normal 0.7933533402912344 0.6087614290087217 0.0
  outer loop
    vertex 37.96862915010153 6.8686291501015235 1.2
    vertex 37.7143593539449 7.199999999999999 0.0
    vertex 37.7143593539449 7.199999999999999 1.2
  endloop
endfacet
facet normal 0.9238795325112881 0.3826834323650867 0.0
  outer loop
    vertex 37.554518677937494 7.585889527835966 0.0
    vertex 37.7143593539449 7.199999999999999 1.2
    vertex 37.7143593539449 7.199999999999999 0.0
  endloop
endfacet
facet normal 0.9238795325112881 0.3826834323650867 0.0
  outer loop
    vertex 37.7143593539449 7.199999999999999 1.2
    vertex 37.554518677937494 7.585889527835966 0.0
    vertex 37.554518677937494 7.585889527835966 1.2
  endloop
endfacet
facet normal 0.991444861373809 0.13052619222006231 0.0
  outer loop
    vertex 37.5 7.999999999999999 0.0
    vertex 37.554518677937494 7.585889527835966 1.2
    vertex 37.554518677937494 7.585889527835966 0.0
  endloop
endfacet
facet normal 0.991444861373809 0.13052619222006231 0.0
  outer loop
    vertex 37.554518677937494 7.585889527835966 1.2
    vertex 37.5 7.999999999999999 0.0
    vertex 37.5 7.999999999999999 1.2
  endloop
endfacet
facet normal 0.991444861373809 -0.13052619222006231 0.0
  outer loop
    vertex 37.554518677937494 8.414110472164033 0.0
    vertex 37.5 7.999999999999999 1.2
    vertex 37.5 7.999999999999999 0.0
  endloop
endfacet
facet normal 0.991444861373809 -0.13052619222006231 0.0
  outer loop
    vertex 37.5 7.999999999999999 1.2
    vertex 37.554518677937494 8.414110472164033 0.0
    vertex 37.554518677937494 8.414110472164033 1.2
  endloop
endfacet
facet normal 0.9238795325112881 -0.3826834323650867 0.0
  outer loop
    vertex 37.7143593539449 8.799999999999999 0.0
    vertex 37.554518677937494 8.414110472164033 1.2
    vertex 37.554518677937494 8.414110472164033 0.0
  endloop
endfacet
facet normal 0.9238795325112881 -0.3826834323650867 0.0
  outer loop
    vertex 37.554518677937494 8.414110472164033 1.2
    vertex 37.7143593539449 8.799999999999999 0.0
    vertex 37.7143593539449 8.799999999999999 1.2
  endloop
endfacet
facet normal 0.7933533402912344 -0.6087614290087217 0.0
  outer loop
    vertex 37.96862915010153 9.131370849898476 0.0
    vertex 37.7143593539449 8.799999999999999 1.2
    vertex 37.7143593539449 8.799999999999999 0.0
  endloop
endfacet
facet normal 0.7933533402912344 -0.6087614290087217 0.0
  outer loop
    vertex 37.7143593539449 8.799999999999999 1.2
    vertex 37.96862915010153 9.131370849898476 0.0
    vertex 37.96862915010153 9.131370849898476 1.2
  endloop
endfacet
facet normal 0.60876142900872 -0.7933533402912356 0.0
  outer loop
    vertex 38.300000000000004 9.385640646055101 1.2
    vertex 37.96862915010153 9.131370849898476 0.0
    vertex 38.300000000000004 9.385640646055101 0.0
  endloop
endfacet
facet normal 0.60876142900872 -0.7933533402912356 0.0
  outer loop
    vertex 37.96862915010153 9.131370849898476 0.0
    vertex 38.300000000000004 9.385640646055101 1.2
    vertex 37.96862915010153 9.131370849898476 1.2
  endloop
endfacet
facet normal 0.38268343236508956 -0.9238795325112867 0.0
  outer loop
    vertex 38.68588952783597 9.545481322062509 1.2
    vertex 38.300000000000004 9.385640646055101 0.0
    vertex 38.68588952783597 9.545481322062509 0.0
  endloop
endfacet
facet normal 0.38268343236508956 -0.9238795325112867 0.0
  outer loop
    vertex 38.300000000000004 9.385640646055101 0.0
    vertex 38.68588952783597 9.545481322062509 1.2
    vertex 38.300000000000004 9.385640646055101 1.2
  endloop
endfacet
facet normal 0.0 -1.0 0.0
  outer loop
    vertex 34.500000000000014 -0.6 1.2
    vertex 30.00000000000003 -0.6 0.0
    vertex 34.50000000000001 -0.6 0.0
  endloop
endfacet
facet normal 0.0 -1.0 0.0
  outer loop
    vertex 30.00000000000003 -0.6 0.0
    vertex 34.500000000000014 -0.6 1.2
    vertex 30.00000000000003 -0.6 1.2
  endloop
endfacet
facet normal -7.303010234824925e-33 -1.7664574264160014e-33 1.0
  outer loop
    vertex 34.50000000000001 3.0 1.2
    vertex 37.0 34.99999999999999 1.2
    vertex 32.0 34.99999999999999 1.2
  endloop
endfacet
facet normal -7.303010234824925e-33 -1.7664574264160014e-33 1.0
  outer loop
    vertex 37.0 34.99999999999999 1.2
    vertex 34.50000000000001 3.0 1.2
    vertex 37.5 7.999999999999999 1.2
  endloop
endfacet
facet normal -7.303010234824925e-33 -1.7664574264160014e-33 1.0
  outer loop
    vertex 37.5 7.999999999999999 1.2
    vertex 34.50000000000001 3.0 1.2
    vertex 37.554518677937494 7.585889527835966 1.2
  endloop
endfacet
facet normal -7.303010234824925e-33 -1.7664574264160014e-33 1.0
  outer loop
    vertex 37.554518677937494 7.585889527835966 1.2
    vertex 34.50000000000001 3.0 1.2
    vertex 37.7143593539449 7.199999999999999 1.2
  endloop
endfacet
facet normal -7.303010234824925e-33 -1.7664574264160014e-33 1.0
  outer loop
    vertex 37.7143593539449 7.199999999999999 1.2
    vertex 34.50000000000001 3.0 1.2
    vertex 40.0 3.0 1.2
  endloop
endfacet
facet normal -7.303010234824925e-33 -1.7664574264160014e-33 1.0
  outer loop
    vertex 37.7143593539449 7.199999999999999 1.2
    vertex 40.0 3.0 1.2
    vertex 37.96862915010153 6.8686291501015235 1.2
  endloop
endfacet
facet normal -7.303010234824925e-33 -1.7664574264160014e-33 1.0
  outer loop
    vertex 37.96862915010153 6.8686291501015235 1.2
    vertex 40.0 3.0 1.2
    vertex 38.300000000000004 6.614359353944898 1.2
  endloop
endfacet
facet normal -7.303010234824925e-33 -1.7664574264160014e-33 1.0
  outer loop
    vertex 38.300000000000004 6.614359353944898 1.2
    vertex 40.0 3.0 1.2
    vertex 38.68588952783597 6.45451867793749 1.2
  endloop
endfacet
facet normal -7.303010234824925e-33 -1.7664574264160014e-33 1.0
  outer loop
    vertex 38.68588952783597 6.45451867793749 1.2
    vertex 40.0 3.0 1.2
    vertex 39.1 6.3999999999999995 1.2
  endloop
endfacet
facet normal -7.303010234824925e-33 -1.7664574264160014e-33 1.0
  outer loop
    vertex 39.1 6.3999999999999995 1.2
    vertex 40.0 3.0 1.2
    vertex 39.514110472164035 6.45451867793749 1.2
  endloop
endfacet
facet normal -7.303010234824925e-33 -1.7664574264160014e-33 1.0
  outer loop
    vertex 39.514110472164035 6.45451867793749 1.2
    vertex 40.0 3.0 1.2
    vertex 39.9 6.614359353944898 1.2
  endloop
endfacet
facet normal -7.303010234824925e-33 -1.7664574264160014e-33 1.0
  outer loop
    vertex 39.9 6.614359353944898 1.2
    vertex 40.0 3.0 1.2
    vertex 40.231370849898475 6.8686291501015235 1.2
  endloop
endfacet
facet normal -7.303010234824925e-33 -1.7664574264160014e-33 1.0
  outer loop
    vertex 40.231370849898475 6.8686291501015235 1.2
    vertex 40.0 3.0 1.2
    vertex 40.39157857666016 3.025665415878569 1.2
  endloop
endfacet
facet normal -7.303010234824925e-33 -1.7664574264160014e-33 1.0
  outer loop
    vertex 40.231370849898475 6.8686291501015235 1.2
    vertex 40.39157857666016 3.025665415878569 1.2
    vertex 40.4856406460551 7.200000000000001 1.2
  endloop
endfacet
facet normal -7.303010234824925e-33 -1.7664574264160014e-33 1.0
  outer loop
    vertex 40.4856406460551 7.200000000000001 1.2
    vertex 40.39157857666016 3.025665415878569 1.2
    vertex 40.77645713530756 3.102222521132795 1.2
  endloop
endfacet
facet normal -7.303010234824925e-33 -1.7664574264160014e-33 1.0
  outer loop
    vertex 40.4856406460551 7.200000000000001 1.2
    vertex 40.77645713530756 3.102222521132795 1.2
    vertex 40.64548132206251 7.585889527835968 1.2
  endloop
endfacet
facet normal -7.303010234824925e-33 -1.7664574264160014e-33 1.0
  outer loop
    vertex 40.64548132206251 7.585889527835968 1.2
    vertex 40.77645713530756 3.102222521132795 1.2
    vertex 40.7 7.999999999999999 1.2
  endloop
endfacet
facet normal -7.303010234824925e-33 -1.7664574264160014e-33 1.0
  outer loop
    vertex 37.0 34.99999999999999 1.2
    vertex 37.7143593539449 8.799999999999999 1.2
    vertex 43.0 19.0 1.2
  endloop
endfacet
facet normal -7.303010234824925e-33 -1.7664574264160014e-33 1.0
  outer loop
    vertex 37.7143593539449 8.799999999999999 1.2
    vertex 37.0 34.99999999999999 1.2
    vertex 37.554518677937494 8.414110472164033 1.2
  endloop
endfacet
facet normal -7.303010234824925e-33 -1.7664574264160014e-33 1.0
  outer loop
    vertex 37.554518677937494 8.414110472164033 1.2
    vertex 37.0 34.99999999999999 1.2
    vertex 37.5 7.999999999999999 1.2
  endloop
endfacet
facet normal -7.303010234824925e-33 -1.7664574264160014e-33 1.0
  outer loop
    vertex 43.0 19.0 1.2
    vertex 37.7143593539449 8.799999999999999 1.2
    vertex 37.96862915010153 9.131370849898476 1.2
  endloop
endfacet
facet normal -7.303010234824925e-33 -1.7664574264160014e-33 1.0
  outer loop
    vertex 43.0 19.0 1.2
    vertex 37.96862915010153 9.131370849898476 1.2
    vertex 38.300000000000004 9.385640646055101 1.2
  endloop
endfacet
facet normal -7.303010234824925e-33 -1.7664574264160014e-33 1.0
  outer loop
    vertex 43.0 19.0 1.2
    vertex 38.300000000000004 9.385640646055101 1.2
    vertex 38.68588952783597 9.545481322062509 1.2
  endloop
endfacet
facet normal -7.303010234824925e-33 -1.7664574264160014e-33 1.0
  outer loop
    vertex 43.0 19.0 1.2
    vertex 38.68588952783597 9.545481322062509 1.2
    vertex 39.1 9.6 1.2
  endloop
endfacet
facet normal -7.303010234824925e-33 -1.7664574264160014e-33 1.0
  outer loop
    vertex 43.0 19.0 1.2
    vertex 39.1 9.6 1.2
    vertex 39.514110472164035 9.545481322062509 1.2
  endloop
endfacet
facet normal -7.303010234824925e-33 -1.7664574264160014e-33 1.0
  outer loop
    vertex 43.0 19.0 1.2
    vertex 39.514110472164035 9.545481322062509 1.2
    vertex 39.9 9.385640646055101 1.2
  endloop
endfacet
facet normal -7.303010234824925e-33 -1.7664574264160014e-33 1.0
  outer loop
    vertex 43.0 19.0 1.2
    vertex 39.9 9.385640646055101 1.2
    vertex 40.231370849898475 9.131370849898476 1.2
  endloop
endfacet
facet normal -7.303010234824925e-33 -1.7664574264160014e-33 1.0
  outer loop
    vertex 43.0 19.0 1.2
    vertex 40.231370849898475 9.131370849898476 1.2
    vertex 40.4856406460551 8.8 1.2
  endloop
endfacet
facet normal -7.303010234824925e-33 -1.7664574264160014e-33 1.0
  outer loop
    vertex 43.0 19.0 1.2
    vertex 40.4856406460551 8.8 1.2
    vertex 40.64548132206251 8.414110472164035 1.2
  endloop
endfacet
facet normal -7.303010234824925e-33 -1.7664574264160014e-33 1.0
  outer loop
    vertex 43.0 19.0 1.2
    vertex 40.64548132206251 8.414110472164035 1.2
    vertex 40.7 7.999999999999999 1.2
  endloop
endfacet
facet normal -7.303010234824925e-33 -1.7664574264160014e-33 1.0
  outer loop
    vertex 43.0 19.0 1.2
    vertex 40.7 7.999999999999999 1.2
    vertex 40.77645713530756 3.102222521132795 1.2
  endloop
endfacet
facet normal -7.303010234824925e-33 -1.7664574264160014e-33 1.0
  outer loop
    vertex 43.0 19.0 1.2
    vertex 40.77645713530756 3.102222521132795 1.2
    vertex 41.14805029709527 3.22836140246614 1.2
  endloop
endfacet
facet normal -7.303010234824925e-33 -1.7664574264160014e-33 1.0
  outer loop
    vertex 43.0 19.0 1.2
    vertex 41.14805029709527 3.22836140246614 1.2
    vertex 41.5 3.401923788646684 1.2
  endloop
endfacet
facet normal -7.303010234824925e-33 -1.7664574264160014e-33 1.0
  outer loop
    vertex 43.0 19.0 1.2
    vertex 41.5 3.401923788646684 1.2
    vertex 41.82628428702616 3.619939979126295 1.2
  endloop
endfacet
facet normal -7.303010234824925e-33 -1.7664574264160014e-33 1.0
  outer loop
    vertex 43.0 19.0 1.2
    vertex 41.82628428702616 3.619939979126295 1.2
    vertex 42.121320343559645 3.878679656440358 1.2
  endloop
endfacet
facet normal -7.303010234824925e-33 -1.7664574264160014e-33 1.0
  outer loop
    vertex 43.0 19.0 1.2
    vertex 42.121320343559645 3.878679656440358 1.2
    vertex 42.38006002087371 4.173715712973839 1.2
  endloop
endfacet
facet normal -7.303010234824925e-33 -1.7664574264160014e-33 1.0
  outer loop
    vertex 43.0 19.0 1.2
    vertex 42.38006002087371 4.173715712973839 1.2
    vertex 42.598076211353316 4.5 1.2
  endloop
endfacet
facet normal -7.303010234824925e-33 -1.7664574264160014e-33 1.0
  outer loop
    vertex 43.0 19.0 1.2
    vertex 42.598076211353316 4.5 1.2
    vertex 42.77163859753386 4.85194970290473 1.2
  endloop
endfacet
facet normal -7.303010234824925e-33 -1.7664574264160014e-33 1.0
  outer loop
    vertex 43.0 19.0 1.2
    vertex 42.77163859753386 4.85194970290473 1.2
    vertex 42.897777478867205 5.223542864692439 1.2
  endloop
endfacet
facet normal -7.303010234824925e-33 -1.7664574264160014e-33 1.0
  outer loop
    vertex 43.0 19.0 1.2
    vertex 42.897777478867205 5.223542864692439 1.2
    vertex 42.97433458412143 5.608421423339846 1.2
  endloop
endfacet
facet normal -7.303010234824925e-33 -1.7664574264160014e-33 1.0
  outer loop
    vertex 43.0 19.0 1.2
    vertex 42.97433458412143 5.608421423339846 1.2
    vertex 43.0 6.0 1.2
  endloop
endfacet
facet normal -7.303010234824925e-33 -1.7664574264160014e-33 1.0
  outer loop
    vertex 23.5 -0.5999999999999968 1.2
    vertex 13.5 3.0000000000000027 1.2
    vertex 13.499999999999998 -0.5999999999999975 1.2
  endloop
endfacet
facet normal -7.303010234824925e-33 -1.7664574264160014e-33 1.0
  outer loop
    vertex 34.500000000000014 -0.6 1.2
    vertex 30.00000000000003 3.0 1.2
    vertex 30.00000000000003 -0.6 1.2
  endloop
endfacet
facet normal -7.303010234824925e-33 -1.7664574264160014e-33 1.0
  outer loop
    vertex 30.00000000000003 3.0 1.2
    vertex 34.500000000000014 -0.6 1.2
    vertex 32.0 34.99999999999999 1.2
  endloop
endfacet
facet normal -7.303010234824925e-33 -1.7664574264160014e-33 1.0
  outer loop
    vertex 32.0 34.99999999999999 1.2
    vertex 34.500000000000014 -0.6 1.2
    vertex 34.50000000000001 3.0 1.2
  endloop
endfacet
facet normal -7.303010234824925e-33 -1.7664574264160014e-33 1.0
  outer loop
    vertex 5.999999999999999 -0.6 1.2
    vertex 2.0024738957000414 5.5331705710028745 1.2
    vertex 1.9999999999999996 -0.6 1.2
  endloop
endfacet
facet normal -7.303010234824925e-33 -1.7664574264160014e-33 1.0
  outer loop
    vertex 2.0024738957000414 5.5331705710028745 1.2
    vertex 5.999999999999999 -0.6 1.2
    vertex 2.080355745774466 6.060628053054697 1.2
  endloop
endfacet
facet normal -7.303010234824925e-33 -1.7664574264160014e-33 1.0
  outer loop
    vertex 2.080355745774466 6.060628053054697 1.2
    vertex 5.999999999999999 -0.6 1.2
    vertex 2.232078746525535 6.571761214751877 1.2
  endloop
endfacet
facet normal -7.303010234824925e-33 -1.7664574264160014e-33 1.0
  outer loop
    vertex 2.232078746525535 6.571761214751877 1.2
    vertex 5.999999999999999 -0.6 1.2
    vertex 2.4545905801361703 7.056287232470945 1.2
  endloop
endfacet
facet normal -7.303010234824925e-33 -1.7664574264160014e-33 1.0
  outer loop
    vertex 2.4545905801361703 7.056287232470945 1.2
    vertex 5.999999999999999 -0.6 1.2
    vertex 2.743414820284205 7.50445855712969 1.2
  endloop
endfacet
facet normal -7.303010234824925e-33 -1.7664574264160014e-33 1.0
  outer loop
    vertex 2.743414820284205 7.50445855712969 1.2
    vertex 5.999999999999999 -0.6 1.2
    vertex 3.0927409875443512 7.9072590124556505 1.2
  endloop
endfacet
facet normal -7.303010234824925e-33 -1.7664574264160014e-33 1.0
  outer loop
    vertex 3.0927409875443512 7.9072590124556505 1.2
    vertex 5.999999999999999 -0.6 1.2
    vertex 3.4955414428703113 8.256585179715797 1.2
  endloop
endfacet
facet normal -7.303010234824925e-33 -1.7664574264160014e-33 1.0
  outer loop
    vertex 3.4955414428703113 8.256585179715797 1.2
    vertex 5.999999999999999 -0.6 1.2
    vertex 3.9437127675290577 8.54540941986383 1.2
  endloop
endfacet
facet normal -7.303010234824925e-33 -1.7664574264160014e-33 1.0
  outer loop
    vertex 3.9437127675290577 8.54540941986383 1.2
    vertex 5.999999999999999 -0.6 1.2
    vertex 4.428238785248124 8.767921253474466 1.2
  endloop
endfacet
facet normal -7.303010234824925e-33 -1.7664574264160014e-33 1.0
  outer loop
    vertex 4.428238785248124 8.767921253474466 1.2
    vertex 5.999999999999999 -0.6 1.2
    vertex 4.939371946945304 8.919644254225535 1.2
  endloop
endfacet
facet normal -7.303010234824925e-33 -1.7664574264160014e-33 1.0
  outer loop
    vertex 4.939371946945304 8.919644254225535 1.2
    vertex 5.999999999999999 -0.6 1.2
    vertex 5.466829428997126 8.99752610429996 1.2
  endloop
endfacet
facet normal -7.303010234824925e-33 -1.7664574264160014e-33 1.0
  outer loop
    vertex 5.466829428997126 8.99752610429996 1.2
    vertex 5.999999999999999 -0.6 1.2
    vertex 6.0 3.0 1.2
  endloop
endfacet
facet normal -7.303010234824925e-33 -1.7664574264160014e-33 1.0
  outer loop
    vertex 5.466829428997126 8.99752610429996 1.2
    vertex 6.0 3.0 1.2
    vertex 26.000000000000004 9.0 1.2
  endloop
endfacet
facet normal -7.303010234824925e-33 -1.7664574264160014e-33 1.0
  outer loop
    vertex 26.000000000000004 9.0 1.2
    vertex 6.0 3.0 1.2
    vertex 13.5 3.0000000000000027 1.2
  endloop
endfacet
facet normal -7.303010234824925e-33 -1.7664574264160014e-33 1.0
  outer loop
    vertex 26.000000000000004 9.0 1.2
    vertex 13.5 3.0000000000000027 1.2
    vertex 23.500000000000004 3.000000000000003 1.2
  endloop
endfacet
facet normal -7.303010234824925e-33 -1.7664574264160014e-33 1.0
  outer loop
    vertex 23.500000000000004 3.000000000000003 1.2
    vertex 13.5 3.0000000000000027 1.2
    vertex 23.5 -0.5999999999999968 1.2
  endloop
endfacet
facet normal -7.303010234824925e-33 -1.7664574264160014e-33 1.0
  outer loop
    vertex 26.000000000000004 9.0 1.2
    vertex 23.500000000000004 3.000000000000003 1.2
    vertex 30.00000000000003 3.0 1.2
  endloop
endfacet
facet normal -7.303010234824925e-33 -1.7664574264160014e-33 1.0
  outer loop
    vertex 26.000000000000004 9.0 1.2
    vertex 30.00000000000003 3.0 1.2
    vertex 26.522104768880208 9.034220554504758 1.2
  endloop
endfacet
facet normal -7.303010234824925e-33 -1.7664574264160014e-33 1.0
  outer loop
    vertex 26.522104768880208 9.034220554504758 1.2
    vertex 30.00000000000003 3.0 1.2
    vertex 27.035276180410083 9.136296694843727 1.2
  endloop
endfacet
facet normal -7.303010234824925e-33 -1.7664574264160014e-33 1.0
  outer loop
    vertex 27.035276180410083 9.136296694843727 1.2
    vertex 30.00000000000003 3.0 1.2
    vertex 27.530733729460362 9.304481869954854 1.2
  endloop
endfacet
facet normal -7.303010234824925e-33 -1.7664574264160014e-33 1.0
  outer loop
    vertex 27.530733729460362 9.304481869954854 1.2
    vertex 30.00000000000003 3.0 1.2
    vertex 28.000000000000004 9.535898384862247 1.2
  endloop
endfacet
facet normal -7.303010234824925e-33 -1.7664574264160014e-33 1.0
  outer loop
    vertex 28.000000000000004 9.535898384862247 1.2
    vertex 30.00000000000003 3.0 1.2
    vertex 28.435045716034885 9.82658663883506 1.2
  endloop
endfacet
facet normal -7.303010234824925e-33 -1.7664574264160014e-33 1.0
  outer loop
    vertex 28.435045716034885 9.82658663883506 1.2
    vertex 30.00000000000003 3.0 1.2
    vertex 28.828427124746195 10.17157287525381 1.2
  endloop
endfacet
facet normal -7.303010234824925e-33 -1.7664574264160014e-33 1.0
  outer loop
    vertex 28.828427124746195 10.17157287525381 1.2
    vertex 30.00000000000003 3.0 1.2
    vertex 29.17341336116494 10.564954283965118 1.2
  endloop
endfacet
facet normal -7.303010234824925e-33 -1.7664574264160014e-33 1.0
  outer loop
    vertex 29.17341336116494 10.564954283965118 1.2
    vertex 30.00000000000003 3.0 1.2
    vertex 29.464101615137753 11.0 1.2
  endloop
endfacet
facet normal -7.303010234824925e-33 -1.7664574264160014e-33 1.0
  outer loop
    vertex 29.464101615137753 11.0 1.2
    vertex 30.00000000000003 3.0 1.2
    vertex 29.69551813004515 11.469266270539642 1.2
  endloop
endfacet
facet normal -7.303010234824925e-33 -1.7664574264160014e-33 1.0
  outer loop
    vertex 29.69551813004515 11.469266270539642 1.2
    vertex 30.00000000000003 3.0 1.2
    vertex 29.863703305156275 11.964723819589915 1.2
  endloop
endfacet
facet normal -7.303010234824925e-33 -1.7664574264160014e-33 1.0
  outer loop
    vertex 29.863703305156275 11.964723819589915 1.2
    vertex 30.00000000000003 3.0 1.2
    vertex 29.965779445495244 12.477895231119792 1.2
  endloop
endfacet
facet normal -7.303010234824925e-33 -1.7664574264160014e-33 1.0
  outer loop
    vertex 29.965779445495244 12.477895231119792 1.2
    vertex 30.00000000000003 3.0 1.2
    vertex 30.0 12.999999999999998 1.2
  endloop
endfacet
facet normal -7.303010234824925e-33 -1.7664574264160014e-33 1.0
  outer loop
    vertex 30.0 12.999999999999998 1.2
    vertex 30.00000000000003 3.0 1.2
    vertex 30.0 19.0 1.2
  endloop
endfacet
facet normal -7.303010234824925e-33 -1.7664574264160014e-33 1.0
  outer loop
    vertex 30.0 19.0 1.2
    vertex 30.00000000000003 3.0 1.2
    vertex 32.0 34.99999999999999 1.2
  endloop
endfacet
facet normal 0.9978589232386034 -0.06540312923014462 -3.4723077707278288e-31
  outer loop
    vertex 43.0 6.0 -8.81239525796218e-17
    vertex 42.97433458412143 5.608421423339846 1.2
    vertex 42.97433458412143 5.608421423339846 -8.81239525796218e-17
  endloop
endfacet
facet normal 0.9978589232386034 -0.06540312923014462 -3.4723077707278288e-31
  outer loop
    vertex 42.97433458412143 5.608421423339846 1.2
    vertex 43.0 6.0 -8.81239525796218e-17
    vertex 43.0 6.0 1.2
  endloop
endfacet
facet normal 0.9807852804032308 -0.19509032201612717 0.0
  outer loop
    vertex 42.97433458412143 5.608421423339846 -8.81239525796218e-17
    vertex 42.897777478867205 5.223542864692439 1.2
    vertex 42.897777478867205 5.223542864692439 -8.81239525796218e-17
  endloop
endfacet
facet normal 0.9807852804032308 -0.19509032201612717 0.0
  outer loop
    vertex 42.897777478867205 5.223542864692439 1.2
    vertex 42.97433458412143 5.608421423339846 -8.81239525796218e-17
    vertex 42.97433458412143 5.608421423339846 1.2
  endloop
endfacet
facet normal 0.9469301294951048 -0.3214394653031644 0.0
  outer loop
    vertex 42.897777478867205 5.223542864692439 -8.81239525796218e-17
    vertex 42.77163859753386 4.85194970290473 1.2
    vertex 42.77163859753386 4.85194970290473 -8.81239525796218e-17
  endloop
endfacet
facet normal 0.9469301294951048 -0.3214394653031644 0.0
  outer loop
    vertex 42.77163859753386 4.85194970290473 1.2
    vertex 42.897777478867205 5.223542864692439 -8.81239525796218e-17
    vertex 42.897777478867205 5.223542864692439 1.2
  endloop
endfacet
facet normal 0.8968727415326913 -0.4422886902189955 0.0
  outer loop
    vertex 42.77163859753386 4.85194970290473 -8.81239525796218e-17
    vertex 42.598076211353316 4.5 1.2
    vertex 42.598076211353316 4.5 -8.81239525796218e-17
  endloop
endfacet
facet normal 0.8968727415326913 -0.4422886902189955 0.0
  outer loop
    vertex 42.598076211353316 4.5 1.2
    vertex 42.77163859753386 4.85194970290473 -8.81239525796218e-17
    vertex 42.77163859753386 4.85194970290473 1.2
  endloop
endfacet
facet normal 0.8314696123025458 -0.5555702330196014 0.0
  outer loop
    vertex 42.598076211353316 4.5 -8.81239525796218e-17
    vertex 42.38006002087371 4.173715712973839 1.2
    vertex 42.38006002087371 4.173715712973839 -8.81239525796218e-17
  endloop
endfacet
facet normal 0.8314696123025458 -0.5555702330196014 0.0
  outer loop
    vertex 42.38006002087371 4.173715712973839 1.2
    vertex 42.598076211353316 4.5 -8.81239525796218e-17
    vertex 42.598076211353316 4.5 1.2
  endloop
endfacet
facet normal 0.7518398074789739 -0.6593458151000727 0.0
  outer loop
    vertex 42.38006002087371 4.173715712973839 -8.81239525796218e-17
    vertex 42.121320343559645 3.878679656440358 1.2
    vertex 42.121320343559645 3.878679656440358 -8.81239525796218e-17
  endloop
endfacet
facet normal 0.7518398074789739 -0.6593458151000727 0.0
  outer loop
    vertex 42.121320343559645 3.878679656440358 1.2
    vertex 42.38006002087371 4.173715712973839 -8.81239525796218e-17
    vertex 42.38006002087371 4.173715712973839 1.2
  endloop
endfacet
facet normal 0.6593458151000713 -0.7518398074789752 0.0
  outer loop
    vertex 42.121320343559645 3.878679656440358 1.2
    vertex 41.82628428702616 3.619939979126295 -8.81239525796218e-17
    vertex 42.121320343559645 3.878679656440358 -8.81239525796218e-17
  endloop
endfacet
facet normal 0.6593458151000713 -0.7518398074789752 0.0
  outer loop
    vertex 41.82628428702616 3.619939979126295 -8.81239525796218e-17
    vertex 42.121320343559645 3.878679656440358 1.2
    vertex 41.82628428702616 3.619939979126295 1.2
  endloop
endfacet
facet normal 0.5555702330196047 -0.8314696123025436 0.0
  outer loop
    vertex 41.82628428702616 3.619939979126295 1.2
    vertex 41.5 3.401923788646684 -8.81239525796218e-17
    vertex 41.82628428702616 3.619939979126295 -8.81239525796218e-17
  endloop
endfacet
facet normal 0.5555702330196047 -0.8314696123025436 0.0
  outer loop
    vertex 41.5 3.401923788646684 -8.81239525796218e-17
    vertex 41.82628428702616 3.619939979126295 1.2
    vertex 41.5 3.401923788646684 1.2
  endloop
endfacet
facet normal 0.4422886902189956 -0.8968727415326913 0.0
  outer loop
    vertex 41.5 3.401923788646684 1.2
    vertex 41.14805029709527 3.22836140246614 -8.81239525796218e-17
    vertex 41.5 3.401923788646684 -8.81239525796218e-17
  endloop
endfacet
facet normal 0.4422886902189956 -0.8968727415326913 0.0
  outer loop
    vertex 41.14805029709527 3.22836140246614 -8.81239525796218e-17
    vertex 41.5 3.401923788646684 1.2
    vertex 41.14805029709527 3.22836140246614 1.2
  endloop
endfacet
facet normal 0.3214394653031647 -0.9469301294951046 0.0
  outer loop
    vertex 41.14805029709527 3.22836140246614 1.2
    vertex 40.77645713530756 3.102222521132795 -8.81239525796218e-17
    vertex 41.14805029709527 3.22836140246614 -8.81239525796218e-17
  endloop
endfacet
facet normal 0.3214394653031647 -0.9469301294951046 0.0
  outer loop
    vertex 40.77645713530756 3.102222521132795 -8.81239525796218e-17
    vertex 41.14805029709527 3.22836140246614 1.2
    vertex 40.77645713530756 3.102222521132795 1.2
  endloop
endfacet
facet normal 0.19509032201612783 -0.9807852804032307 0.0
  outer loop
    vertex 40.77645713530756 3.102222521132795 1.2
    vertex 40.39157857666016 3.025665415878569 -8.81239525796218e-17
    vertex 40.77645713530756 3.102222521132795 -8.81239525796218e-17
  endloop
endfacet
facet normal 0.19509032201612783 -0.9807852804032307 0.0
  outer loop
    vertex 40.39157857666016 3.025665415878569 -8.81239525796218e-17
    vertex 40.77645713530756 3.102222521132795 1.2
    vertex 40.39157857666016 3.025665415878569 1.2
  endloop
endfacet
facet normal 0.06540312923014337 -0.9978589232386036 -2.1525566049803645e-32
  outer loop
    vertex 40.39157857666016 3.025665415878569 1.2
    vertex 40.0 3.0 -8.81239525796218e-17
    vertex 40.39157857666016 3.025665415878569 -8.81239525796218e-17
  endloop
endfacet
facet normal 0.06540312923014337 -0.9978589232386036 -2.1525566049803645e-32
  outer loop
    vertex 40.0 3.0 -8.81239525796218e-17
    vertex 40.39157857666016 3.025665415878569 1.2
    vertex 40.0 3.0 1.2
  endloop
endfacet
endsolid BarInsert
