solid PushBarMX
facet normal 0.0 0.0 1.0
  outer loop
    vertex 4.4 69.99999999999999 19.7
    vertex 0.0 94.99999999999999 19.7
    vertex 0.0 69.99999999999999 19.7
  endloop
endfacet
facet normal 0.0 0.0 1.0
  outer loop
    vertex 0.0 94.99999999999999 19.7
    vertex 4.4 69.99999999999999 19.7
    vertex 4.3999999999999995 94.99999999999999 19.7
  endloop
endfacet
facet normal -4.2575136803755427e-17 1.406074396012523e-18 1.0
  outer loop
    vertex 3.6000000000000005 70.49999999999999 1.7999999999999996
    vertex 1.6000000000000012 89.09999999999998 1.7999999999999996
    vertex 1.6000000000000005 70.49999999999999 1.7999999999999996
  endloop
endfacet
facet normal -4.2575136803755427e-17 1.406074396012523e-18 1.0
  outer loop
    vertex 1.6000000000000012 89.09999999999998 1.7999999999999996
    vertex 3.6000000000000005 70.49999999999999 1.7999999999999996
    vertex 3.5999999999999948 89.09999999999998 1.7999999999999996
  endloop
endfacet
facet normal -4.2575136803755427e-17 1.406074396012523e-18 1.0
  outer loop
    vertex 3.5999999999999948 89.09999999999998 1.7999999999999996
    vertex 3.6000000000000005 70.49999999999999 1.7999999999999996
    vertex 3.5999999999999948 90.49999999999999 1.7999999999999996
  endloop
endfacet
facet normal -4.2575136803755427e-17 1.406074396012523e-18 1.0
  outer loop
    vertex 4.4 48.49999999999999 1.7999999999999996
    vertex 1.6000000000000005 69.09999999999998 1.7999999999999996
    vertex 1.6000000000000005 48.49999999999999 1.7999999999999996
  endloop
endfacet
facet normal -4.2575136803755427e-17 1.406074396012523e-18 1.0
  outer loop
    vertex 1.6000000000000005 69.09999999999998 1.7999999999999996
    vertex 4.4 48.49999999999999 1.7999999999999996
    vertex 3.6000000000000005 69.09999999999998 1.7999999999999996
  endloop
endfacet
facet normal -4.2575136803755427e-17 1.406074396012523e-18 1.0
  outer loop
    vertex 3.6000000000000005 69.09999999999998 1.7999999999999996
    vertex 4.4 48.49999999999999 1.7999999999999996
    vertex 3.6000000000000005 70.49999999999999 1.7999999999999996
  endloop
endfacet
facet normal -4.2575136803755427e-17 1.406074396012523e-18 1.0
  outer loop
    vertex 6.899999999999999 0.6 1.7999999999999998
    vertex 4.4 1.7999999999999998 1.7999999999999998
    vertex 4.4 0.6 1.7999999999999998
  endloop
endfacet
facet normal -4.2575136803755427e-17 1.406074396012523e-18 1.0
  outer loop
    vertex 4.4 1.7999999999999998 1.7999999999999998
    vertex 6.899999999999999 0.6 1.7999999999999998
    vertex 4.400000000000002 24.599999999999998 1.7999999999999996
  endloop
endfacet
facet normal -4.2575136803755427e-17 1.406074396012523e-18 1.0
  outer loop
    vertex 4.400000000000002 24.599999999999998 1.7999999999999996
    vertex 6.899999999999999 0.6 1.7999999999999998
    vertex 4.400000000000002 25.999999999999996 1.7999999999999996
  endloop
endfacet
facet normal -4.2575136803755427e-17 1.406074396012523e-18 1.0
  outer loop
    vertex 4.400000000000002 25.999999999999996 1.7999999999999996
    vertex 6.899999999999999 0.6 1.7999999999999998
    vertex 4.400000000000005 94.99999999999999 1.7999999999999998
  endloop
endfacet
facet normal -4.2575136803755427e-17 1.406074396012523e-18 1.0
  outer loop
    vertex 4.400000000000005 94.99999999999999 1.7999999999999998
    vertex 6.899999999999999 0.6 1.7999999999999998
    vertex 6.9 94.99999999999999 1.7999999999999998
  endloop
endfacet
facet normal -4.2575136803755427e-17 1.406074396012523e-18 1.0
  outer loop
    vertex 1.6000000000000028 25.999999999999996 1.7999999999999996
    vertex 4.4 47.099999999999994 1.7999999999999996
    vertex 1.6000000000000005 47.099999999999994 1.7999999999999996
  endloop
endfacet
facet normal -4.2575136803755427e-17 1.406074396012523e-18 1.0
  outer loop
    vertex 4.4 47.099999999999994 1.7999999999999996
    vertex 1.6000000000000028 25.999999999999996 1.7999999999999996
    vertex 4.400000000000002 25.999999999999996 1.7999999999999996
  endloop
endfacet
facet normal -4.2575136803755427e-17 1.406074396012523e-18 1.0
  outer loop
    vertex 4.4 47.099999999999994 1.7999999999999996
    vertex 4.400000000000002 25.999999999999996 1.7999999999999996
    vertex 4.4 48.49999999999999 1.7999999999999996
  endloop
endfacet
facet normal -4.2575136803755427e-17 1.406074396012523e-18 1.0
  outer loop
    vertex 4.4 48.49999999999999 1.7999999999999996
    vertex 4.400000000000002 25.999999999999996 1.7999999999999996
    vertex 4.4 93.79999999999998 1.7999999999999996
  endloop
endfacet
facet normal -4.2575136803755427e-17 1.406074396012523e-18 1.0
  outer loop
    vertex 4.4 93.79999999999998 1.7999999999999996
    vertex 4.400000000000002 25.999999999999996 1.7999999999999996
    vertex 4.400000000000005 94.99999999999999 1.7999999999999998
  endloop
endfacet
facet normal -4.2575136803755427e-17 1.406074396012523e-18 1.0
  outer loop
    vertex 3.5999999999999948 90.49999999999999 1.7999999999999996
    vertex 1.6000000000000005 93.79999999999998 1.7999999999999996
    vertex 1.5999999999999999 90.49999999999999 1.7999999999999996
  endloop
endfacet
facet normal -4.2575136803755427e-17 1.406074396012523e-18 1.0
  outer loop
    vertex 1.6000000000000005 93.79999999999998 1.7999999999999996
    vertex 3.5999999999999948 90.49999999999999 1.7999999999999996
    vertex 4.4 93.79999999999998 1.7999999999999996
  endloop
endfacet
facet normal -4.2575136803755427e-17 1.406074396012523e-18 1.0
  outer loop
    vertex 4.4 93.79999999999998 1.7999999999999996
    vertex 3.5999999999999948 90.49999999999999 1.7999999999999996
    vertex 3.6000000000000005 70.49999999999999 1.7999999999999996
  endloop
endfacet
facet normal -4.2575136803755427e-17 1.406074396012523e-18 1.0
  outer loop
    vertex 4.4 93.79999999999998 1.7999999999999996
    vertex 3.6000000000000005 70.49999999999999 1.7999999999999996
    vertex 4.4 48.49999999999999 1.7999999999999996
  endloop
endfacet
facet normal -4.2575136803755427e-17 1.406074396012523e-18 1.0
  outer loop
    vertex 4.4 1.7999999999999998 1.7999999999999998
    vertex 1.6000000000000005 24.599999999999998 1.7999999999999996
    vertex 1.6000000000000005 1.7999999999999998 1.7999999999999998
  endloop
endfacet
facet normal -4.2575136803755427e-17 1.406074396012523e-18 1.0
  outer loop
    vertex 1.6000000000000005 24.599999999999998 1.7999999999999996
    vertex 4.4 1.7999999999999998 1.7999999999999998
    vertex 4.400000000000002 24.599999999999998 1.7999999999999996
  endloop
endfacet
facet normal 0.0 1.0 0.0
  outer loop
    vertex 0.0 95.59999999999998 0.6
    vertex 4.400000000000005 95.59999999999998 1.2
    vertex 6.9 95.59999999999998 0.6
  endloop
endfacet
facet normal 0.0 1.0 0.0
  outer loop
    vertex 4.400000000000005 95.59999999999998 1.2
    vertex 0.0 95.59999999999998 0.6
    vertex 0.0 95.59999999999998 19.1
  endloop
endfacet
facet normal 0.0 1.0 0.0
  outer loop
    vertex 4.400000000000005 95.59999999999998 1.2
    vertex 0.0 95.59999999999998 19.1
    vertex 4.3999999999999995 95.59999999999998 19.1
  endloop
endfacet
facet normal 0.0 1.0 0.0
  outer loop
    vertex 6.9 95.59999999999998 1.2
    vertex 6.9 95.59999999999998 0.6
    vertex 4.400000000000005 95.59999999999998 1.2
  endloop
endfacet
facet normal 0.0 -1.0 0.0
  outer loop
    vertex 6.899999999999999 0.0 1.2
    vertex 0.0 0.0 0.6
    vertex 6.9 0.0 0.6
  endloop
endfacet
facet normal 0.0 -1.0 0.0
  outer loop
    vertex 0.0 0.0 0.6
    vertex 6.899999999999999 0.0 1.2
    vertex 0.0 0.0 1.2
  endloop
endfacet
facet normal 0.0 0.0 -1.0
  outer loop
    vertex 6.9 94.99999999999999 0.0
    vertex 0.0 0.7514109999999999 0.0
    vertex 0.0 94.99999999999999 0.0
  endloop
endfacet
facet normal 0.0 0.0 -1.0
  outer loop
    vertex 0.0 0.7514109999999999 0.0
    vertex 6.9 94.99999999999999 0.0
    vertex 6.9 0.7514109999999999 0.0
  endloop
endfacet
facet normal 0.0 0.0 -1.0
  outer loop
    vertex 4.4 93.79999999999998 17.900000000000002
    vertex 1.6000000000000005 90.49999999999999 17.900000000000002
    vertex 1.6000000000000005 93.79999999999998 17.900000000000002
  endloop
endfacet
facet normal 0.0 0.0 -1.0
  outer loop
    vertex 1.6000000000000005 90.49999999999999 17.900000000000002
    vertex 4.4 93.79999999999998 17.900000000000002
    vertex 3.5999999999999948 90.49999999999999 17.900000000000002
  endloop
endfacet
facet normal 0.0 0.0 -1.0
  outer loop
    vertex 3.5999999999999948 90.49999999999999 17.900000000000002
    vertex 4.4 93.79999999999998 17.900000000000002
    vertex 3.5999999999999948 89.09999999999998 17.900000000000002
  endloop
endfacet
facet normal 0.0 0.0 -1.0
  outer loop
    vertex 3.5999999999999948 89.09999999999998 17.900000000000002
    vertex 4.4 93.79999999999998 17.900000000000002
    vertex 3.6000000000000005 70.49999999999999 17.900000000000002
  endloop
endfacet
facet normal 0.0 0.0 -1.0
  outer loop
    vertex 3.6000000000000005 70.49999999999999 17.900000000000002
    vertex 4.4 93.79999999999998 17.900000000000002
    vertex 3.6000000000000005 69.99999999999999 17.900000000000002
  endloop
endfacet
facet normal 0.0 0.0 -1.0
  outer loop
    vertex 3.6000000000000005 69.99999999999999 17.900000000000002
    vertex 4.4 93.79999999999998 17.900000000000002
    vertex 4.4 69.99999999999999 17.900000000000002
  endloop
endfacet
facet normal 0.0 0.0 -1.0
  outer loop
    vertex 3.5999999999999948 89.09999999999998 17.900000000000002
    vertex 1.600000000000004 70.49999999999999 17.900000000000002
    vertex 1.600000000000001 89.09999999999998 17.900000000000002
  endloop
endfacet
facet normal 0.0 0.0 -1.0
  outer loop
    vertex 1.600000000000004 70.49999999999999 17.900000000000002
    vertex 3.5999999999999948 89.09999999999998 17.900000000000002
    vertex 3.6000000000000005 70.49999999999999 17.900000000000002
  endloop
endfacet
facet normal 1.5828323437960647e-16 0.22975513648512108 -0.9732484663531218
  outer loop
    vertex 4.4 69.99999999999999 17.900000000000002
    vertex 3.6000000000000005 69.09999999999998 17.687536656891496
    vertex 3.6000000000000005 69.99999999999999 17.900000000000002
  endloop
endfacet
facet normal 1.5828323437960647e-16 0.22975513648512108 -0.9732484663531218
  outer loop
    vertex 1.6000000000000039 69.09999999999998 17.687536656891496
    vertex 4.4 48.79999999999999 12.895307917888564
    vertex 1.6000000000000005 48.79999999999999 12.895307917888564
  endloop
endfacet
facet normal 1.5828323437960647e-16 0.22975513648512108 -0.9732484663531218
  outer loop
    vertex 4.4 48.79999999999999 12.895307917888564
    vertex 1.6000000000000039 69.09999999999998 17.687536656891496
    vertex 3.6000000000000005 69.09999999999998 17.687536656891496
  endloop
endfacet
facet normal 1.5828323437960647e-16 0.22975513648512108 -0.9732484663531218
  outer loop
    vertex 4.4 48.79999999999999 12.895307917888564
    vertex 3.6000000000000005 69.09999999999998 17.687536656891496
    vertex 4.4 69.99999999999999 17.900000000000002
  endloop
endfacet
facet normal 1.0 -2.6013727240161857e-15 -3.5577393608824017e-16
  outer loop
    vertex 1.6000000000000005 94.0500736356719 6.6611962015489095
    vertex 1.6000000000000005 93.79999999999998 9.542534961282138
    vertex 1.5999999999999988 93.79999999999998 6.100000000000003
  endloop
endfacet
facet normal 1.0 -2.6013727240161857e-15 -3.5577393608824017e-16
  outer loop
    vertex 1.6000000000000005 93.79999999999998 9.542534961282138
    vertex 1.6000000000000005 94.0500736356719 6.6611962015489095
    vertex 1.6000000000000005 94.0500736356719 8.938803798451094
  endloop
endfacet
facet normal 1.0 -2.6013727240161857e-15 -3.5577393608824017e-16
  outer loop
    vertex 1.6000000000000005 94.0500736356719 8.938803798451094
    vertex 1.6000000000000005 94.0500736356719 6.6611962015489095
    vertex 1.6000000000000005 94.19999999999999 7.8
  endloop
endfacet
facet normal 0.0 0.7071067811865476 0.7071067811865476
  outer loop
    vertex 0.0 94.99999999999999 19.7
    vertex 4.3999999999999995 95.59999999999998 19.1
    vertex 0.0 95.59999999999998 19.1
  endloop
endfacet
facet normal 0.0 0.7071067811865476 0.7071067811865476
  outer loop
    vertex 4.3999999999999995 95.59999999999998 19.1
    vertex 0.0 94.99999999999999 19.7
    vertex 4.3999999999999995 94.99999999999999 19.7
  endloop
endfacet
facet normal 0.0 0.7071067811865481 -0.7071067811865469
  outer loop
    vertex 0.0 95.59999999999998 0.6
    vertex 6.9 94.99999999999999 0.0
    vertex 0.0 94.99999999999999 0.0
  endloop
endfacet
facet normal 0.0 0.7071067811865481 -0.7071067811865469
  outer loop
    vertex 6.9 94.99999999999999 0.0
    vertex 0.0 95.59999999999998 0.6
    vertex 6.9 95.59999999999998 0.6
  endloop
endfacet
facet normal 1.0 -5.39786884713168e-18 2.7841468514806033e-16
  outer loop
    vertex 6.9 0.7514109999999999 0.0
    vertex 6.899999999999999 0.0 1.2
    vertex 6.9 0.0 0.6
  endloop
endfacet
facet normal 1.0 -5.39786884713168e-18 2.7841468514806033e-16
  outer loop
    vertex 6.899999999999999 0.0 1.2
    vertex 6.9 0.7514109999999999 0.0
    vertex 6.899999999999999 0.6 1.7999999999999998
  endloop
endfacet
facet normal 1.0 -5.39786884713168e-18 2.7841468514806033e-16
  outer loop
    vertex 6.899999999999999 0.6 1.7999999999999998
    vertex 6.9 0.7514109999999999 0.0
    vertex 6.9 94.99999999999999 1.7999999999999998
  endloop
endfacet
facet normal 1.0 -5.39786884713168e-18 2.7841468514806033e-16
  outer loop
    vertex 6.9 94.99999999999999 1.7999999999999998
    vertex 6.9 0.7514109999999999 0.0
    vertex 6.9 94.99999999999999 0.0
  endloop
endfacet
facet normal 1.0 -5.39786884713168e-18 2.7841468514806033e-16
  outer loop
    vertex 6.9 94.99999999999999 1.7999999999999998
    vertex 6.9 94.99999999999999 0.0
    vertex 6.9 95.59999999999998 0.6
  endloop
endfacet
facet normal 1.0 -5.39786884713168e-18 2.7841468514806033e-16
  outer loop
    vertex 6.9 94.99999999999999 1.7999999999999998
    vertex 6.9 95.59999999999998 0.6
    vertex 6.9 95.59999999999998 1.2
  endloop
endfacet
facet normal 0.0 0.7071067811865481 0.7071067811865469
  outer loop
    vertex 4.400000000000005 94.99999999999999 1.7999999999999998
    vertex 6.9 95.59999999999998 1.2
    vertex 4.400000000000005 95.59999999999998 1.2
  endloop
endfacet
facet normal 0.0 0.7071067811865481 0.7071067811865469
  outer loop
    vertex 6.9 95.59999999999998 1.2
    vertex 4.400000000000005 94.99999999999999 1.7999999999999998
    vertex 6.9 94.99999999999999 1.7999999999999998
  endloop
endfacet
facet normal 0.0 -0.62397898481027 -0.7814411215921164
  outer loop
    vertex 6.9 0.7514109999999999 0.0
    vertex 0.0 0.0 0.6
    vertex 0.0 0.7514109999999999 0.0
  endloop
endfacet
facet normal 0.0 -0.62397898481027 -0.7814411215921164
  outer loop
    vertex 0.0 0.0 0.6
    vertex 6.9 0.7514109999999999 0.0
    vertex 6.9 0.0 0.6
  endloop
endfacet
facet normal -1.496215994946e-18 -0.7071067811865477 0.7071067811865475
  outer loop
    vertex 6.899999999999999 0.6 1.7999999999999998
    vertex 0.0 0.0 1.2
    vertex 6.899999999999999 0.0 1.2
  endloop
endfacet
facet normal -1.496215994946e-18 -0.7071067811865477 0.7071067811865475
  outer loop
    vertex 0.0 0.0 1.2
    vertex 6.899999999999999 0.6 1.7999999999999998
    vertex 0.0 0.6 1.7999999999999998
  endloop
endfacet
facet normal -1.496215994946e-18 -0.7071067811865477 0.7071067811865475
  outer loop
    vertex 0.0 0.6 1.7999999999999998
    vertex 6.899999999999999 0.6 1.7999999999999998
    vertex 4.4 0.6 1.7999999999999998
  endloop
endfacet
facet normal 0.0 -0.2333729524753242 0.9723873019805175
  outer loop
    vertex 4.4 1.9447746039610347 3.366745904950649
    vertex 0.0 69.99999999999999 19.7
    vertex 0.0 1.9447746039610347 3.366745904950649
  endloop
endfacet
facet normal 0.0 -0.2333729524753242 0.9723873019805175
  outer loop
    vertex 0.0 69.99999999999999 19.7
    vertex 4.4 1.9447746039610347 3.366745904950649
    vertex 4.4 69.99999999999999 19.7
  endloop
endfacet
facet normal 0.0 -0.7588138064342186 0.6513076133170963
  outer loop
    vertex 4.4 1.9447746039610347 3.366745904950649
    vertex 0.0 0.6 1.7999999999999998
    vertex 4.4 0.6 1.7999999999999998
  endloop
endfacet
facet normal 0.0 -0.7588138064342186 0.6513076133170963
  outer loop
    vertex 0.0 0.6 1.7999999999999998
    vertex 4.4 1.9447746039610347 3.366745904950649
    vertex 0.0 1.9447746039610347 3.366745904950649
  endloop
endfacet
facet normal 1.0 -1.9584931810702387e-17 1.3251459736737426e-16
  outer loop
    vertex 4.400000000000002 25.999999999999996 1.7999999999999996
    vertex 4.400000000000002 24.599999999999998 7.1824046920821125
    vertex 4.400000000000002 24.599999999999998 1.7999999999999996
  endloop
endfacet
facet normal 1.0 -1.9584931810702387e-17 1.3251459736737426e-16
  outer loop
    vertex 4.4 48.49999999999999 1.7999999999999996
    vertex 4.4 47.099999999999994 12.423167155425224
    vertex 4.4 47.099999999999994 1.7999999999999996
  endloop
endfacet
facet normal 1.0 -1.9584931810702387e-17 1.3251459736737426e-16
  outer loop
    vertex 4.400000000000005 94.99999999999999 1.7999999999999998
    vertex 4.4 93.79999999999998 17.900000000000002
    vertex 4.4 93.79999999999998 1.7999999999999996
  endloop
endfacet
facet normal 1.0 -1.9584931810702387e-17 1.3251459736737426e-16
  outer loop
    vertex 4.4 1.7999999999999998 1.7999999999999998
    vertex 4.4 1.9447746039610347 3.366745904950649
    vertex 4.4 0.6 1.7999999999999998
  endloop
endfacet
facet normal 1.0 -1.9584931810702387e-17 1.3251459736737426e-16
  outer loop
    vertex 4.4 1.9447746039610347 3.366745904950649
    vertex 4.4 1.7999999999999998 1.7999999999999998
    vertex 4.400000000000002 24.599999999999998 7.1824046920821125
  endloop
endfacet
facet normal 1.0 -1.9584931810702387e-17 1.3251459736737426e-16
  outer loop
    vertex 4.4 1.9447746039610347 3.366745904950649
    vertex 4.400000000000002 24.599999999999998 7.1824046920821125
    vertex 4.4 69.99999999999999 19.7
  endloop
endfacet
facet normal 1.0 -1.9584931810702387e-17 1.3251459736737426e-16
  outer loop
    vertex 4.4 69.99999999999999 19.7
    vertex 4.400000000000002 24.599999999999998 7.1824046920821125
    vertex 4.400000000000002 25.999999999999996 7.512903225806451
  endloop
endfacet
facet normal 1.0 -1.9584931810702387e-17 1.3251459736737426e-16
  outer loop
    vertex 4.400000000000002 25.999999999999996 7.512903225806451
    vertex 4.400000000000002 24.599999999999998 7.1824046920821125
    vertex 4.400000000000002 25.999999999999996 1.7999999999999996
  endloop
endfacet
facet normal 1.0 -1.9584931810702387e-17 1.3251459736737426e-16
  outer loop
    vertex 4.4 69.99999999999999 19.7
    vertex 4.400000000000002 25.999999999999996 7.512903225806451
    vertex 4.4 46.79999999999999 12.423167155425224
  endloop
endfacet
facet normal 1.0 -1.9584931810702387e-17 1.3251459736737426e-16
  outer loop
    vertex 4.4 69.99999999999999 19.7
    vertex 4.4 46.79999999999999 12.423167155425224
    vertex 4.4 47.099999999999994 12.423167155425224
  endloop
endfacet
facet normal 1.0 -1.9584931810702387e-17 1.3251459736737426e-16
  outer loop
    vertex 4.4 69.99999999999999 19.7
    vertex 4.4 47.099999999999994 12.423167155425224
    vertex 4.4 48.49999999999999 12.811988959806799
  endloop
endfacet
facet normal 1.0 -1.9584931810702387e-17 1.3251459736737426e-16
  outer loop
    vertex 4.4 48.49999999999999 12.811988959806799
    vertex 4.4 47.099999999999994 12.423167155425224
    vertex 4.4 48.49999999999999 1.7999999999999996
  endloop
endfacet
facet normal 1.0 -1.9584931810702387e-17 1.3251459736737426e-16
  outer loop
    vertex 4.4 69.99999999999999 19.7
    vertex 4.4 48.49999999999999 12.811988959806799
    vertex 4.4 48.79999999999999 12.895307917888564
  endloop
endfacet
facet normal 1.0 -1.9584931810702387e-17 1.3251459736737426e-16
  outer loop
    vertex 4.4 69.99999999999999 19.7
    vertex 4.4 48.79999999999999 12.895307917888564
    vertex 4.4 69.99999999999999 17.900000000000002
  endloop
endfacet
facet normal 1.0 -1.9584931810702387e-17 1.3251459736737426e-16
  outer loop
    vertex 4.4 69.99999999999999 19.7
    vertex 4.4 69.99999999999999 17.900000000000002
    vertex 4.4 93.79999999999998 17.900000000000002
  endloop
endfacet
facet normal 1.0 -1.9584931810702387e-17 1.3251459736737426e-16
  outer loop
    vertex 4.4 69.99999999999999 19.7
    vertex 4.4 93.79999999999998 17.900000000000002
    vertex 4.3999999999999995 94.99999999999999 19.7
  endloop
endfacet
facet normal 1.0 -1.9584931810702387e-17 1.3251459736737426e-16
  outer loop
    vertex 4.3999999999999995 94.99999999999999 19.7
    vertex 4.4 93.79999999999998 17.900000000000002
    vertex 4.400000000000005 94.99999999999999 1.7999999999999998
  endloop
endfacet
facet normal 1.0 -1.9584931810702387e-17 1.3251459736737426e-16
  outer loop
    vertex 4.3999999999999995 94.99999999999999 19.7
    vertex 4.400000000000005 94.99999999999999 1.7999999999999998
    vertex 4.400000000000005 95.59999999999998 1.2
  endloop
endfacet
facet normal 1.0 -1.9584931810702387e-17 1.3251459736737426e-16
  outer loop
    vertex 4.3999999999999995 94.99999999999999 19.7
    vertex 4.400000000000005 95.59999999999998 1.2
    vertex 4.3999999999999995 95.59999999999998 19.1
  endloop
endfacet
facet normal 1.0 5.231772091528581e-17 0.0
  outer loop
    vertex 1.6000000000000005 47.099999999999994 1.7999999999999996
    vertex 1.6000000000000028 25.999999999999996 7.512903225806451
    vertex 1.6000000000000028 25.999999999999996 1.7999999999999996
  endloop
endfacet
facet normal 1.0 5.231772091528581e-17 0.0
  outer loop
    vertex 1.6000000000000028 25.999999999999996 7.512903225806451
    vertex 1.6000000000000005 47.099999999999994 1.7999999999999996
    vertex 1.6000000000000005 46.79999999999999 12.423167155425224
  endloop
endfacet
facet normal 1.0 5.231772091528581e-17 0.0
  outer loop
    vertex 1.6000000000000005 46.79999999999999 12.423167155425224
    vertex 1.6000000000000005 47.099999999999994 1.7999999999999996
    vertex 1.6000000000000005 47.099999999999994 12.423167155425224
  endloop
endfacet
facet normal 2.9470632347216154e-17 0.2297551364851213 -0.9732484663531216
  outer loop
    vertex 4.4 46.79999999999999 12.423167155425224
    vertex 1.6000000000000028 25.999999999999996 7.512903225806451
    vertex 1.6000000000000005 46.79999999999999 12.423167155425224
  endloop
endfacet
facet normal 2.9470632347216154e-17 0.2297551364851213 -0.9732484663531216
  outer loop
    vertex 1.6000000000000028 25.999999999999996 7.512903225806451
    vertex 4.4 46.79999999999999 12.423167155425224
    vertex 4.400000000000002 25.999999999999996 7.512903225806451
  endloop
endfacet
facet normal 0.0 1.0 0.0
  outer loop
    vertex 1.6000000000000028 25.999999999999996 7.512903225806451
    vertex 4.400000000000002 25.999999999999996 1.7999999999999996
    vertex 1.6000000000000028 25.999999999999996 1.7999999999999996
  endloop
endfacet
facet normal 0.0 1.0 0.0
  outer loop
    vertex 4.400000000000002 25.999999999999996 1.7999999999999996
    vertex 1.6000000000000028 25.999999999999996 7.512903225806451
    vertex 4.400000000000002 25.999999999999996 7.512903225806451
  endloop
endfacet
facet normal 1.0 0.0 0.0
  outer loop
    vertex 1.6000000000000005 24.599999999999998 7.1824046920821125
    vertex 1.6000000000000005 1.7999999999999998 1.7999999999999998
    vertex 1.6000000000000005 24.599999999999998 1.7999999999999996
  endloop
endfacet
facet normal 0.0 -1.0 0.0
  outer loop
    vertex 4.400000000000002 24.599999999999998 7.1824046920821125
    vertex 1.6000000000000005 24.599999999999998 1.7999999999999996
    vertex 4.400000000000002 24.599999999999998 1.7999999999999996
  endloop
endfacet
facet normal 0.0 -1.0 0.0
  outer loop
    vertex 1.6000000000000005 24.599999999999998 1.7999999999999996
    vertex 4.400000000000002 24.599999999999998 7.1824046920821125
    vertex 1.6000000000000005 24.599999999999998 7.1824046920821125
  endloop
endfacet
facet normal -2.050721421396102e-17 0.22975513648512116 -0.9732484663531216
  outer loop
    vertex 4.400000000000002 24.599999999999998 7.1824046920821125
    vertex 1.6000000000000005 1.7999999999999998 1.7999999999999998
    vertex 1.6000000000000005 24.599999999999998 7.1824046920821125
  endloop
endfacet
facet normal -2.050721421396102e-17 0.22975513648512116 -0.9732484663531216
  outer loop
    vertex 1.6000000000000005 1.7999999999999998 1.7999999999999998
    vertex 4.400000000000002 24.599999999999998 7.1824046920821125
    vertex 4.4 1.7999999999999998 1.7999999999999998
  endloop
endfacet
facet normal 0.0 -1.0 0.0
  outer loop
    vertex 4.4 47.099999999999994 12.423167155425224
    vertex 1.6000000000000005 47.099999999999994 1.7999999999999996
    vertex 4.4 47.099999999999994 1.7999999999999996
  endloop
endfacet
facet normal 0.0 -1.0 0.0
  outer loop
    vertex 1.6000000000000005 47.099999999999994 1.7999999999999996
    vertex 4.4 47.099999999999994 12.423167155425224
    vertex 1.6000000000000005 47.099999999999994 12.423167155425224
  endloop
endfacet
facet normal -0.0 -0.0 -1.0
  outer loop
    vertex 4.4 47.099999999999994 12.423167155425224
    vertex 1.6000000000000005 46.79999999999999 12.423167155425224
    vertex 1.6000000000000005 47.099999999999994 12.423167155425224
  endloop
endfacet
facet normal -0.0 -0.0 -1.0
  outer loop
    vertex 1.6000000000000005 46.79999999999999 12.423167155425224
    vertex 4.4 47.099999999999994 12.423167155425224
    vertex 4.4 46.79999999999999 12.423167155425224
  endloop
endfacet
facet normal 0.0 1.0 0.0
  outer loop
    vertex 1.6000000000000005 48.49999999999999 12.811988959806799
    vertex 4.4 48.49999999999999 1.7999999999999996
    vertex 1.6000000000000005 48.49999999999999 1.7999999999999996
  endloop
endfacet
facet normal 0.0 1.0 0.0
  outer loop
    vertex 4.4 48.49999999999999 1.7999999999999996
    vertex 1.6000000000000005 48.49999999999999 12.811988959806799
    vertex 4.4 48.49999999999999 12.811988959806799
  endloop
endfacet
facet normal -1.0745752029694529e-18 0.2676010008789699 -0.9635298149660828
  outer loop
    vertex 4.4 48.79999999999999 12.895307917888564
    vertex 1.6000000000000005 48.49999999999999 12.811988959806799
    vertex 1.6000000000000005 48.79999999999999 12.895307917888564
  endloop
endfacet
facet normal -1.0745752029694529e-18 0.2676010008789699 -0.9635298149660828
  outer loop
    vertex 1.6000000000000005 48.49999999999999 12.811988959806799
    vertex 4.4 48.79999999999999 12.895307917888564
    vertex 4.4 48.49999999999999 12.811988959806799
  endloop
endfacet
facet normal 0.0 1.0 0.0
  outer loop
    vertex 1.600000000000004 70.49999999999999 17.900000000000002
    vertex 3.5999999999999948 70.49999999999999 11.899999999999995
    vertex 1.6000000000000045 70.49999999999999 11.899999999999995
  endloop
endfacet
facet normal 0.0 1.0 0.0
  outer loop
    vertex 3.5999999999999948 70.49999999999999 11.899999999999995
    vertex 1.600000000000004 70.49999999999999 17.900000000000002
    vertex 3.6000000000000005 70.49999999999999 17.900000000000002
  endloop
endfacet
facet normal 0.0 -1.0 0.0
  outer loop
    vertex 3.6000000000000005 69.09999999999998 17.687536656891496
    vertex 1.600000000000004 69.09999999999998 11.899999999999993
    vertex 3.600000000000001 69.09999999999998 11.899999999999993
  endloop
endfacet
facet normal 0.0 -1.0 0.0
  outer loop
    vertex 1.600000000000004 69.09999999999998 11.899999999999993
    vertex 3.6000000000000005 69.09999999999998 17.687536656891496
    vertex 1.6000000000000039 69.09999999999998 17.687536656891496
  endloop
endfacet
facet normal 0.0 1.0 0.0
  outer loop
    vertex 1.6000000000000039 70.49999999999999 6.100000000000002
    vertex 3.6000000000000005 70.49999999999999 1.7999999999999996
    vertex 1.6000000000000005 70.49999999999999 1.7999999999999996
  endloop
endfacet
facet normal 0.0 1.0 0.0
  outer loop
    vertex 3.6000000000000005 70.49999999999999 1.7999999999999996
    vertex 1.6000000000000039 70.49999999999999 6.100000000000002
    vertex 3.5999999999999948 70.49999999999999 6.100000000000002
  endloop
endfacet
facet normal 0.0 -1.0 0.0
  outer loop
    vertex 3.600000000000001 69.09999999999998 6.100000000000001
    vertex 1.6000000000000005 69.09999999999998 1.7999999999999996
    vertex 3.6000000000000005 69.09999999999998 1.7999999999999996
  endloop
endfacet
facet normal 0.0 -1.0 0.0
  outer loop
    vertex 1.6000000000000005 69.09999999999998 1.7999999999999996
    vertex 3.600000000000001 69.09999999999998 6.100000000000001
    vertex 1.6000000000000039 69.09999999999998 6.100000000000001
  endloop
endfacet
facet normal 0.0 -1.0 0.0
  outer loop
    vertex 3.5912139999999964 89.09999999999998 6.1000000000000005
    vertex 1.6000000000000012 89.09999999999998 1.7999999999999996
    vertex 3.5999999999999948 89.09999999999998 1.7999999999999996
  endloop
endfacet
facet normal 0.0 -1.0 0.0
  outer loop
    vertex 1.6000000000000012 89.09999999999998 1.7999999999999996
    vertex 3.5912139999999964 89.09999999999998 6.1000000000000005
    vertex 1.5999999999999985 89.09999999999998 6.1000000000000005
  endloop
endfacet
facet normal 0.0 1.0 0.0
  outer loop
    vertex 1.5999999999999985 90.49999999999999 6.100000000000003
    vertex 3.5999999999999948 90.49999999999999 1.7999999999999996
    vertex 1.5999999999999999 90.49999999999999 1.7999999999999996
  endloop
endfacet
facet normal 0.0 1.0 0.0
  outer loop
    vertex 3.5999999999999948 90.49999999999999 1.7999999999999996
    vertex 1.5999999999999985 90.49999999999999 6.100000000000003
    vertex 3.5912139999999986 90.49999999999999 6.100000000000003
  endloop
endfacet
facet normal 0.0 -1.0 0.0
  outer loop
    vertex 3.5999999999999948 89.09999999999998 17.900000000000002
    vertex 1.5999999999999985 89.09999999999998 11.9
    vertex 3.5912139999999964 89.09999999999998 11.9
  endloop
endfacet
facet normal 0.0 -1.0 0.0
  outer loop
    vertex 1.5999999999999985 89.09999999999998 11.9
    vertex 3.5999999999999948 89.09999999999998 17.900000000000002
    vertex 1.600000000000001 89.09999999999998 17.900000000000002
  endloop
endfacet
facet normal 0.0 1.0 0.0
  outer loop
    vertex 1.6000000000000005 90.49999999999999 17.900000000000002
    vertex 3.5912139999999986 90.49999999999999 11.899999999999997
    vertex 1.5999999999999985 90.49999999999999 11.899999999999997
  endloop
endfacet
facet normal 0.0 1.0 0.0
  outer loop
    vertex 3.5912139999999986 90.49999999999999 11.899999999999997
    vertex 1.6000000000000005 90.49999999999999 17.900000000000002
    vertex 3.5999999999999948 90.49999999999999 17.900000000000002
  endloop
endfacet
facet normal -1.0 2.7228234669606627e-17 -7.785983009483909e-17
  outer loop
    vertex 0.0 69.99999999999999 19.7
    vertex 3.779217376201483e-15 66.39999999999998 10.499999999999998
    vertex 0.0 1.9447746039610347 3.366745904950649
  endloop
endfacet
facet normal -1.0 2.7228234669606627e-17 -7.785983009483909e-17
  outer loop
    vertex 3.779217376201483e-15 66.39999999999998 10.499999999999998
    vertex 0.0 69.99999999999999 19.7
    vertex 3.684825717438562e-15 73.19999999999999 10.499999999999998
  endloop
endfacet
facet normal -1.0 2.7228234669606627e-17 -7.785983009483909e-17
  outer loop
    vertex 3.684825717438562e-15 73.19999999999999 10.499999999999998
    vertex 0.0 69.99999999999999 19.7
    vertex 0.0 94.99999999999999 19.7
  endloop
endfacet
facet normal -1.0 2.7228234669606627e-17 -7.785983009483909e-17
  outer loop
    vertex 3.684825717438562e-15 73.19999999999999 10.499999999999998
    vertex 0.0 94.99999999999999 19.7
    vertex 3.815800232485822e-15 73.19999999999999 7.499999999999993
  endloop
endfacet
facet normal -1.0 2.7228234669606627e-17 -7.785983009483909e-17
  outer loop
    vertex 3.815800232485822e-15 73.19999999999999 7.499999999999993
    vertex 0.0 94.99999999999999 19.7
    vertex 3.875295646122038e-15 86.39999999999998 10.5
  endloop
endfacet
facet normal -1.0 2.7228234669606627e-17 -7.785983009483909e-17
  outer loop
    vertex 3.875295646122038e-15 86.39999999999998 10.5
    vertex 0.0 94.99999999999999 19.7
    vertex 3.87659152318369e-15 93.19999999999999 10.5
  endloop
endfacet
facet normal -1.0 2.7228234669606627e-17 -7.785983009483909e-17
  outer loop
    vertex 3.87659152318369e-15 93.19999999999999 10.5
    vertex 0.0 94.99999999999999 19.7
    vertex 3.254311381229043e-15 93.19999999999999 7.5
  endloop
endfacet
facet normal -1.0 2.7228234669606627e-17 -7.785983009483909e-17
  outer loop
    vertex 0.0 0.6 1.7999999999999998
    vertex 0.0 0.0 0.6
    vertex 0.0 0.0 1.2
  endloop
endfacet
facet normal -1.0 2.7228234669606627e-17 -7.785983009483909e-17
  outer loop
    vertex 0.0 0.0 0.6
    vertex 0.0 0.6 1.7999999999999998
    vertex 0.0 0.7514109999999999 0.0
  endloop
endfacet
facet normal -1.0 2.7228234669606627e-17 -7.785983009483909e-17
  outer loop
    vertex 0.0 0.7514109999999999 0.0
    vertex 0.0 0.6 1.7999999999999998
    vertex 0.0 1.9447746039610347 3.366745904950649
  endloop
endfacet
facet normal -1.0 2.7228234669606627e-17 -7.785983009483909e-17
  outer loop
    vertex 0.0 0.7514109999999999 0.0
    vertex 0.0 1.9447746039610347 3.366745904950649
    vertex 0.0 94.99999999999999 0.0
  endloop
endfacet
facet normal -1.0 2.7228234669606627e-17 -7.785983009483909e-17
  outer loop
    vertex 0.0 94.99999999999999 0.0
    vertex 0.0 1.9447746039610347 3.366745904950649
    vertex 4.004583550011665e-15 66.39999999999998 7.499999999999993
  endloop
endfacet
facet normal -1.0 2.7228234669606627e-17 -7.785983009483909e-17
  outer loop
    vertex 4.004583550011665e-15 66.39999999999998 7.499999999999993
    vertex 0.0 1.9447746039610347 3.366745904950649
    vertex 3.779217376201483e-15 66.39999999999998 10.499999999999998
  endloop
endfacet
facet normal -1.0 2.7228234669606627e-17 -7.785983009483909e-17
  outer loop
    vertex 0.0 94.99999999999999 0.0
    vertex 4.004583550011665e-15 66.39999999999998 7.499999999999993
    vertex 3.815800232485822e-15 73.19999999999999 7.499999999999993
  endloop
endfacet
facet normal -1.0 2.7228234669606627e-17 -7.785983009483909e-17
  outer loop
    vertex 0.0 94.99999999999999 0.0
    vertex 3.815800232485822e-15 73.19999999999999 7.499999999999993
    vertex 3.8176984897439965e-15 86.39999999999998 7.5
  endloop
endfacet
facet normal -1.0 2.7228234669606627e-17 -7.785983009483909e-17
  outer loop
    vertex 3.8176984897439965e-15 86.39999999999998 7.5
    vertex 3.815800232485822e-15 73.19999999999999 7.499999999999993
    vertex 3.875295646122038e-15 86.39999999999998 10.5
  endloop
endfacet
facet normal -1.0 2.7228234669606627e-17 -7.785983009483909e-17
  outer loop
    vertex 0.0 94.99999999999999 0.0
    vertex 3.8176984897439965e-15 86.39999999999998 7.5
    vertex 3.254311381229043e-15 93.19999999999999 7.5
  endloop
endfacet
facet normal -1.0 2.7228234669606627e-17 -7.785983009483909e-17
  outer loop
    vertex 0.0 94.99999999999999 0.0
    vertex 3.254311381229043e-15 93.19999999999999 7.5
    vertex 0.0 94.99999999999999 19.7
  endloop
endfacet
facet normal -1.0 2.7228234669606627e-17 -7.785983009483909e-17
  outer loop
    vertex 0.0 94.99999999999999 0.0
    vertex 0.0 94.99999999999999 19.7
    vertex 0.0 95.59999999999998 19.1
  endloop
endfacet
facet normal -1.0 2.7228234669606627e-17 -7.785983009483909e-17
  outer loop
    vertex 0.0 94.99999999999999 0.0
    vertex 0.0 95.59999999999998 19.1
    vertex 0.0 95.59999999999998 0.6
  endloop
endfacet
facet normal 1.0 8.58564808516001e-16 -7.434539240933606e-17
  outer loop
    vertex 3.6000000000000005 70.49999999999999 1.7999999999999996
    vertex 3.600000000000001 69.09999999999998 6.100000000000001
    vertex 3.6000000000000005 69.09999999999998 1.7999999999999996
  endloop
endfacet
facet normal 1.0 8.58564808516001e-16 -7.434539240933606e-17
  outer loop
    vertex 3.600000000000002 64.99999999999999 6.100000000000001
    vertex 3.600000000000002 66.39999999999998 7.499999999999993
    vertex 3.600000000000002 64.99999999999999 11.899999999999993
  endloop
endfacet
facet normal 1.0 8.58564808516001e-16 -7.434539240933606e-17
  outer loop
    vertex 3.600000000000002 66.39999999999998 7.499999999999993
    vertex 3.600000000000002 64.99999999999999 6.100000000000001
    vertex 3.600000000000001 69.09999999999998 6.100000000000001
  endloop
endfacet
facet normal 1.0 8.58564808516001e-16 -7.434539240933606e-17
  outer loop
    vertex 3.600000000000002 66.39999999999998 7.499999999999993
    vertex 3.600000000000001 69.09999999999998 6.100000000000001
    vertex 3.5999999999999948 73.19999999999999 7.499999999999993
  endloop
endfacet
facet normal 1.0 8.58564808516001e-16 -7.434539240933606e-17
  outer loop
    vertex 3.5999999999999948 73.19999999999999 7.499999999999993
    vertex 3.600000000000001 69.09999999999998 6.100000000000001
    vertex 3.5999999999999948 70.49999999999999 6.100000000000002
  endloop
endfacet
facet normal 1.0 8.58564808516001e-16 -7.434539240933606e-17
  outer loop
    vertex 3.5999999999999948 70.49999999999999 6.100000000000002
    vertex 3.600000000000001 69.09999999999998 6.100000000000001
    vertex 3.6000000000000005 70.49999999999999 1.7999999999999996
  endloop
endfacet
facet normal 1.0 8.58564808516001e-16 -7.434539240933606e-17
  outer loop
    vertex 3.5999999999999948 73.19999999999999 7.499999999999993
    vertex 3.5999999999999948 70.49999999999999 6.100000000000002
    vertex 3.5999999999999948 74.6 6.100000000000002
  endloop
endfacet
facet normal 1.0 8.58564808516001e-16 -7.434539240933606e-17
  outer loop
    vertex 3.5999999999999948 73.19999999999999 7.499999999999993
    vertex 3.5999999999999948 74.6 6.100000000000002
    vertex 3.5999999999999948 73.19999999999999 10.500000000000002
  endloop
endfacet
facet normal 1.0 8.58564808516001e-16 -7.434539240933606e-17
  outer loop
    vertex 3.600000000000002 64.99999999999999 11.899999999999993
    vertex 3.600000000000002 66.39999999999998 10.500000000000002
    vertex 3.600000000000001 69.09999999999998 11.899999999999993
  endloop
endfacet
facet normal 1.0 8.58564808516001e-16 -7.434539240933606e-17
  outer loop
    vertex 3.600000000000002 66.39999999999998 10.500000000000002
    vertex 3.600000000000002 64.99999999999999 11.899999999999993
    vertex 3.600000000000002 66.39999999999998 7.499999999999993
  endloop
endfacet
facet normal 1.0 8.58564808516001e-16 -7.434539240933606e-17
  outer loop
    vertex 3.600000000000001 69.09999999999998 11.899999999999993
    vertex 3.600000000000002 66.39999999999998 10.500000000000002
    vertex 3.5999999999999948 73.19999999999999 10.500000000000002
  endloop
endfacet
facet normal 1.0 8.58564808516001e-16 -7.434539240933606e-17
  outer loop
    vertex 3.600000000000001 69.09999999999998 11.899999999999993
    vertex 3.5999999999999948 73.19999999999999 10.500000000000002
    vertex 3.5999999999999948 70.49999999999999 11.899999999999995
  endloop
endfacet
facet normal 1.0 8.58564808516001e-16 -7.434539240933606e-17
  outer loop
    vertex 3.600000000000001 69.09999999999998 11.899999999999993
    vertex 3.5999999999999948 70.49999999999999 11.899999999999995
    vertex 3.6000000000000005 69.09999999999998 17.687536656891496
  endloop
endfacet
facet normal 1.0 8.58564808516001e-16 -7.434539240933606e-17
  outer loop
    vertex 3.6000000000000005 69.09999999999998 17.687536656891496
    vertex 3.5999999999999948 70.49999999999999 11.899999999999995
    vertex 3.6000000000000005 69.99999999999999 17.900000000000002
  endloop
endfacet
facet normal 1.0 8.58564808516001e-16 -7.434539240933606e-17
  outer loop
    vertex 3.5999999999999948 70.49999999999999 11.899999999999995
    vertex 3.5999999999999948 73.19999999999999 10.500000000000002
    vertex 3.5999999999999948 74.6 11.899999999999995
  endloop
endfacet
facet normal 1.0 8.58564808516001e-16 -7.434539240933606e-17
  outer loop
    vertex 3.5999999999999948 74.6 11.899999999999995
    vertex 3.5999999999999948 73.19999999999999 10.500000000000002
    vertex 3.5999999999999948 74.6 6.100000000000002
  endloop
endfacet
facet normal 1.0 8.58564808516001e-16 -7.434539240933606e-17
  outer loop
    vertex 3.6000000000000005 70.49999999999999 17.900000000000002
    vertex 3.6000000000000005 69.99999999999999 17.900000000000002
    vertex 3.5999999999999948 70.49999999999999 11.899999999999995
  endloop
endfacet
facet normal 1.0 -5.3408456108861625e-17 -2.6926763288217773e-16
  outer loop
    vertex 1.5999999999999988 93.79999999999998 11.899999999999997
    vertex 1.6000000000000005 90.49999999999999 17.900000000000002
    vertex 1.5999999999999985 90.49999999999999 11.899999999999997
  endloop
endfacet
facet normal 1.0 -5.3408456108861625e-17 -2.6926763288217773e-16
  outer loop
    vertex 1.6000000000000005 90.49999999999999 17.900000000000002
    vertex 1.5999999999999988 93.79999999999998 11.899999999999997
    vertex 1.6000000000000005 93.79999999999998 17.900000000000002
  endloop
endfacet
facet normal 0.0 1.0 0.0
  outer loop
    vertex 3.779217376201483e-15 66.39999999999998 10.499999999999998
    vertex 3.600000000000002 66.39999999999998 7.499999999999993
    vertex 4.004583550011665e-15 66.39999999999998 7.499999999999993
  endloop
endfacet
facet normal 0.0 1.0 0.0
  outer loop
    vertex 3.600000000000002 66.39999999999998 7.499999999999993
    vertex 3.779217376201483e-15 66.39999999999998 10.499999999999998
    vertex 3.600000000000002 66.39999999999998 10.500000000000002
  endloop
endfacet
facet normal 3.7561028968363473e-16 1.3333641265579127e-31 -1.0
  outer loop
    vertex 3.5999999999999948 73.19999999999999 10.500000000000002
    vertex 3.779217376201483e-15 66.39999999999998 10.499999999999998
    vertex 3.684825717438562e-15 73.19999999999999 10.499999999999998
  endloop
endfacet
facet normal 3.7561028968363473e-16 1.3333641265579127e-31 -1.0
  outer loop
    vertex 3.779217376201483e-15 66.39999999999998 10.499999999999998
    vertex 3.5999999999999948 73.19999999999999 10.500000000000002
    vertex 3.600000000000002 66.39999999999998 10.500000000000002
  endloop
endfacet
facet normal 0.0 -1.0 0.0
  outer loop
    vertex 3.5999999999999948 73.19999999999999 10.500000000000002
    vertex 3.815800232485822e-15 73.19999999999999 7.499999999999993
    vertex 3.5999999999999948 73.19999999999999 7.499999999999993
  endloop
endfacet
facet normal 0.0 -1.0 0.0
  outer loop
    vertex 3.815800232485822e-15 73.19999999999999 7.499999999999993
    vertex 3.5999999999999948 73.19999999999999 10.500000000000002
    vertex 3.684825717438562e-15 73.19999999999999 10.499999999999998
  endloop
endfacet
facet normal -2.3894973328643198e-17 1.0 -1.0321649275117936e-35
  outer loop
    vertex 3.875295646122038e-15 86.39999999999998 10.5
    vertex 3.591213999999994 86.39999999999998 7.5
    vertex 3.8176984897439965e-15 86.39999999999998 7.5
  endloop
endfacet
facet normal -2.3894973328643198e-17 1.0 -1.0321649275117936e-35
  outer loop
    vertex 3.591213999999994 86.39999999999998 7.5
    vertex 3.875295646122038e-15 86.39999999999998 10.5
    vertex 3.591213999999994 86.39999999999998 10.5
  endloop
endfacet
facet normal 2.9446516719846345e-16 2.0901911666492118e-17 -1.0
  outer loop
    vertex 3.87659152318369e-15 93.19999999999999 10.5
    vertex 3.591213999999994 86.39999999999998 10.5
    vertex 3.875295646122038e-15 86.39999999999998 10.5
  endloop
endfacet
facet normal 2.9446516719846345e-16 2.0901911666492118e-17 -1.0
  outer loop
    vertex 3.591213999999994 86.39999999999998 10.5
    vertex 3.87659152318369e-15 93.19999999999999 10.5
    vertex 3.5912139999999964 93.19999999999999 10.5
  endloop
endfacet
facet normal 2.3894973328643198e-17 -1.0 -4.4873733105554114e-33
  outer loop
    vertex 3.5912139999999964 93.19999999999999 10.5
    vertex 3.254311381229043e-15 93.19999999999999 7.5
    vertex 3.5912139999999937 93.19999999999999 7.5
  endloop
endfacet
facet normal 2.3894973328643198e-17 -1.0 -4.4873733105554114e-33
  outer loop
    vertex 3.254311381229043e-15 93.19999999999999 7.5
    vertex 3.5912139999999964 93.19999999999999 10.5
    vertex 3.87659152318369e-15 93.19999999999999 10.5
  endloop
endfacet
facet normal -3.435426950648744e-16 5.076178547576679e-17 1.0
  outer loop
    vertex 3.8176984897439965e-15 86.39999999999998 7.5
    vertex 3.5912139999999937 93.19999999999999 7.5
    vertex 3.254311381229043e-15 93.19999999999999 7.5
  endloop
endfacet
facet normal -3.435426950648744e-16 5.076178547576679e-17 1.0
  outer loop
    vertex 3.5912139999999937 93.19999999999999 7.5
    vertex 3.8176984897439965e-15 86.39999999999998 7.5
    vertex 3.591213999999994 86.39999999999998 7.5
  endloop
endfacet
facet normal 1.0 -3.0464090223263634e-16 2.60253076467344e-16
  outer loop
    vertex 1.6000000000000005 93.79999999999998 1.7999999999999996
    vertex 1.5999999999999985 90.49999999999999 6.100000000000003
    vertex 1.5999999999999999 90.49999999999999 1.7999999999999996
  endloop
endfacet
facet normal 1.0 -3.0464090223263634e-16 2.60253076467344e-16
  outer loop
    vertex 1.5999999999999985 90.49999999999999 6.100000000000003
    vertex 1.6000000000000005 93.79999999999998 1.7999999999999996
    vertex 1.5999999999999988 93.79999999999998 6.100000000000003
  endloop
endfacet
facet normal 1.0 -3.0464090223263634e-16 2.60253076467344e-16
  outer loop
    vertex 1.5999999999999988 93.79999999999998 6.100000000000003
    vertex 1.6000000000000005 93.79999999999998 1.7999999999999996
    vertex 1.6000000000000005 93.79999999999998 6.057465038717863
  endloop
endfacet
facet normal 0.0 -1.0 0.0
  outer loop
    vertex 3.591213999999995 84.99999999999999 11.9
    vertex 1.599999999999997 84.99999999999999 6.1000000000000005
    vertex 3.591213999999995 84.99999999999999 6.1000000000000005
  endloop
endfacet
facet normal 0.0 -1.0 0.0
  outer loop
    vertex 1.599999999999997 84.99999999999999 6.1000000000000005
    vertex 3.591213999999995 84.99999999999999 11.9
    vertex 1.599999999999997 84.99999999999999 11.9
  endloop
endfacet
facet normal 0.0 -1.0 0.0
  outer loop
    vertex 3.591214000000001 93.79999999999998 9.542534961282138
    vertex 1.5999999999999988 93.79999999999998 6.100000000000003
    vertex 3.5912139999999986 93.79999999999998 6.100000000000003
  endloop
endfacet
facet normal 0.0 -1.0 0.0
  outer loop
    vertex 1.5999999999999988 93.79999999999998 6.100000000000003
    vertex 3.591214000000001 93.79999999999998 9.542534961282138
    vertex 1.6000000000000005 93.79999999999998 9.542534961282138
  endloop
endfacet
facet normal 1.0 -1.516783261719626e-16 -6.253682311086033e-17
  outer loop
    vertex 1.6000000000000005 69.09999999999998 1.7999999999999996
    vertex 1.6000000000000005 48.49999999999999 12.811988959806799
    vertex 1.6000000000000005 48.49999999999999 1.7999999999999996
  endloop
endfacet
facet normal 1.0 -1.516783261719626e-16 -6.253682311086033e-17
  outer loop
    vertex 1.6000000000000005 48.49999999999999 12.811988959806799
    vertex 1.6000000000000005 69.09999999999998 1.7999999999999996
    vertex 1.6000000000000005 48.79999999999999 12.895307917888564
  endloop
endfacet
facet normal 1.0 -1.516783261719626e-16 -6.253682311086033e-17
  outer loop
    vertex 1.6000000000000005 48.79999999999999 12.895307917888564
    vertex 1.6000000000000005 69.09999999999998 1.7999999999999996
    vertex 1.6000000000000048 64.99999999999999 6.100000000000001
  endloop
endfacet
facet normal 1.0 -1.516783261719626e-16 -6.253682311086033e-17
  outer loop
    vertex 1.6000000000000048 64.99999999999999 6.100000000000001
    vertex 1.6000000000000005 69.09999999999998 1.7999999999999996
    vertex 1.6000000000000039 69.09999999999998 6.100000000000001
  endloop
endfacet
facet normal 1.0 -1.516783261719626e-16 -6.253682311086033e-17
  outer loop
    vertex 1.6000000000000005 48.79999999999999 12.895307917888564
    vertex 1.6000000000000048 64.99999999999999 11.899999999999993
    vertex 1.6000000000000039 69.09999999999998 17.687536656891496
  endloop
endfacet
facet normal 1.0 -1.516783261719626e-16 -6.253682311086033e-17
  outer loop
    vertex 1.6000000000000048 64.99999999999999 11.899999999999993
    vertex 1.6000000000000005 48.79999999999999 12.895307917888564
    vertex 1.6000000000000048 64.99999999999999 6.100000000000001
  endloop
endfacet
facet normal 1.0 -1.516783261719626e-16 -6.253682311086033e-17
  outer loop
    vertex 1.6000000000000039 69.09999999999998 17.687536656891496
    vertex 1.6000000000000048 64.99999999999999 11.899999999999993
    vertex 1.600000000000004 69.09999999999998 11.899999999999993
  endloop
endfacet
facet normal 1.0 3.0364474625266864e-16 -7.508821610416731e-17
  outer loop
    vertex 1.6000000000000012 89.09999999999998 1.7999999999999996
    vertex 1.6000000000000039 70.49999999999999 6.100000000000002
    vertex 1.6000000000000005 70.49999999999999 1.7999999999999996
  endloop
endfacet
facet normal 1.0 3.0364474625266864e-16 -7.508821610416731e-17
  outer loop
    vertex 1.6000000000000039 70.49999999999999 6.100000000000002
    vertex 1.6000000000000012 89.09999999999998 1.7999999999999996
    vertex 1.6000000000000048 74.6 6.100000000000002
  endloop
endfacet
facet normal 1.0 3.0364474625266864e-16 -7.508821610416731e-17
  outer loop
    vertex 1.6000000000000048 74.6 6.100000000000002
    vertex 1.6000000000000012 89.09999999999998 1.7999999999999996
    vertex 1.6000000000000048 74.6 11.899999999999995
  endloop
endfacet
facet normal 1.0 3.0364474625266864e-16 -7.508821610416731e-17
  outer loop
    vertex 1.6000000000000048 74.6 11.899999999999995
    vertex 1.6000000000000012 89.09999999999998 1.7999999999999996
    vertex 1.599999999999997 84.99999999999999 6.1000000000000005
  endloop
endfacet
facet normal 1.0 3.0364474625266864e-16 -7.508821610416731e-17
  outer loop
    vertex 1.599999999999997 84.99999999999999 6.1000000000000005
    vertex 1.6000000000000012 89.09999999999998 1.7999999999999996
    vertex 1.5999999999999985 89.09999999999998 6.1000000000000005
  endloop
endfacet
facet normal 1.0 3.0364474625266864e-16 -7.508821610416731e-17
  outer loop
    vertex 1.6000000000000048 74.6 11.899999999999995
    vertex 1.600000000000004 70.49999999999999 17.900000000000002
    vertex 1.6000000000000045 70.49999999999999 11.899999999999995
  endloop
endfacet
facet normal 1.0 3.0364474625266864e-16 -7.508821610416731e-17
  outer loop
    vertex 1.600000000000004 70.49999999999999 17.900000000000002
    vertex 1.6000000000000048 74.6 11.899999999999995
    vertex 1.600000000000001 89.09999999999998 17.900000000000002
  endloop
endfacet
facet normal 1.0 3.0364474625266864e-16 -7.508821610416731e-17
  outer loop
    vertex 1.600000000000001 89.09999999999998 17.900000000000002
    vertex 1.6000000000000048 74.6 11.899999999999995
    vertex 1.599999999999997 84.99999999999999 11.9
  endloop
endfacet
facet normal 1.0 3.0364474625266864e-16 -7.508821610416731e-17
  outer loop
    vertex 1.599999999999997 84.99999999999999 11.9
    vertex 1.6000000000000048 74.6 11.899999999999995
    vertex 1.599999999999997 84.99999999999999 6.1000000000000005
  endloop
endfacet
facet normal 1.0 3.0364474625266864e-16 -7.508821610416731e-17
  outer loop
    vertex 1.600000000000001 89.09999999999998 17.900000000000002
    vertex 1.599999999999997 84.99999999999999 11.9
    vertex 1.5999999999999985 89.09999999999998 11.9
  endloop
endfacet
facet normal 0.0 0.0 1.0
  outer loop
    vertex 1.6000000000000048 64.99999999999999 11.899999999999993
    vertex 3.600000000000001 69.09999999999998 11.899999999999993
    vertex 1.600000000000004 69.09999999999998 11.899999999999993
  endloop
endfacet
facet normal 0.0 0.0 1.0
  outer loop
    vertex 3.600000000000001 69.09999999999998 11.899999999999993
    vertex 1.6000000000000048 64.99999999999999 11.899999999999993
    vertex 3.600000000000002 64.99999999999999 11.899999999999993
  endloop
endfacet
facet normal 2.795920988730097e-16 -1.0 0.0
  outer loop
    vertex 3.600000000000002 64.99999999999999 11.899999999999993
    vertex 1.6000000000000048 64.99999999999999 6.100000000000001
    vertex 3.600000000000002 64.99999999999999 6.100000000000001
  endloop
endfacet
facet normal 2.795920988730097e-16 -1.0 0.0
  outer loop
    vertex 1.6000000000000048 64.99999999999999 6.100000000000001
    vertex 3.600000000000002 64.99999999999999 11.899999999999993
    vertex 1.6000000000000048 64.99999999999999 11.899999999999993
  endloop
endfacet
facet normal 0.0 0.0 -1.0
  outer loop
    vertex 3.600000000000001 69.09999999999998 6.100000000000001
    vertex 1.6000000000000048 64.99999999999999 6.100000000000001
    vertex 1.6000000000000039 69.09999999999998 6.100000000000001
  endloop
endfacet
facet normal 0.0 0.0 -1.0
  outer loop
    vertex 1.6000000000000048 64.99999999999999 6.100000000000001
    vertex 3.600000000000001 69.09999999999998 6.100000000000001
    vertex 3.600000000000002 64.99999999999999 6.100000000000001
  endloop
endfacet
facet normal 0.0 0.0 -1.0
  outer loop
    vertex 1.6000000000000048 74.6 6.100000000000002
    vertex 3.5999999999999948 70.49999999999999 6.100000000000002
    vertex 1.6000000000000039 70.49999999999999 6.100000000000002
  endloop
endfacet
facet normal 0.0 0.0 -1.0
  outer loop
    vertex 3.5999999999999948 70.49999999999999 6.100000000000002
    vertex 1.6000000000000048 74.6 6.100000000000002
    vertex 3.5999999999999948 74.6 6.100000000000002
  endloop
endfacet
facet normal 2.3866088113421347e-16 1.0 0.0
  outer loop
    vertex 1.6000000000000048 74.6 11.899999999999995
    vertex 3.5999999999999948 74.6 6.100000000000002
    vertex 1.6000000000000048 74.6 6.100000000000002
  endloop
endfacet
facet normal 2.3866088113421347e-16 1.0 0.0
  outer loop
    vertex 3.5999999999999948 74.6 6.100000000000002
    vertex 1.6000000000000048 74.6 11.899999999999995
    vertex 3.5999999999999948 74.6 11.899999999999995
  endloop
endfacet
facet normal 0.0 0.0 1.0
  outer loop
    vertex 3.5999999999999948 70.49999999999999 11.899999999999995
    vertex 1.6000000000000048 74.6 11.899999999999995
    vertex 1.6000000000000045 70.49999999999999 11.899999999999995
  endloop
endfacet
facet normal 0.0 0.0 1.0
  outer loop
    vertex 1.6000000000000048 74.6 11.899999999999995
    vertex 3.5999999999999948 70.49999999999999 11.899999999999995
    vertex 3.5999999999999948 74.6 11.899999999999995
  endloop
endfacet
facet normal -1.8780514484181737e-16 -6.969857934280004e-32 1.0
  outer loop
    vertex 4.004583550011665e-15 66.39999999999998 7.499999999999993
    vertex 3.5999999999999948 73.19999999999999 7.499999999999993
    vertex 3.815800232485822e-15 73.19999999999999 7.499999999999993
  endloop
endfacet
facet normal -1.8780514484181737e-16 -6.969857934280004e-32 1.0
  outer loop
    vertex 3.5999999999999948 73.19999999999999 7.499999999999993
    vertex 4.004583550011665e-15 66.39999999999998 7.499999999999993
    vertex 3.600000000000002 66.39999999999998 7.499999999999993
  endloop
endfacet
facet normal 0.0 -1.0 0.0
  outer loop
    vertex 4.4 93.79999999999998 1.7999999999999996
    vertex 3.591214000000001 93.79999999999998 6.057465038717862
    vertex 1.6000000000000005 93.79999999999998 1.7999999999999996
  endloop
endfacet
facet normal 0.0 -1.0 0.0
  outer loop
    vertex 3.591214000000001 93.79999999999998 6.057465038717862
    vertex 4.4 93.79999999999998 1.7999999999999996
    vertex 4.4 93.79999999999998 17.900000000000002
  endloop
endfacet
facet normal 0.0 -1.0 0.0
  outer loop
    vertex 3.591214000000001 93.79999999999998 6.057465038717862
    vertex 4.4 93.79999999999998 17.900000000000002
    vertex 3.5912139999999986 93.79999999999998 6.100000000000003
  endloop
endfacet
facet normal 0.0 -1.0 0.0
  outer loop
    vertex 3.5912139999999986 93.79999999999998 6.100000000000003
    vertex 4.4 93.79999999999998 17.900000000000002
    vertex 3.591214000000001 93.79999999999998 9.542534961282138
  endloop
endfacet
facet normal 0.0 -1.0 0.0
  outer loop
    vertex 3.591214000000001 93.79999999999998 9.542534961282138
    vertex 4.4 93.79999999999998 17.900000000000002
    vertex 3.5912139999999986 93.79999999999998 11.899999999999997
  endloop
endfacet
facet normal 0.0 -1.0 0.0
  outer loop
    vertex 3.5912139999999986 93.79999999999998 11.899999999999997
    vertex 4.4 93.79999999999998 17.900000000000002
    vertex 1.5999999999999988 93.79999999999998 11.899999999999997
  endloop
endfacet
facet normal 0.0 -1.0 0.0
  outer loop
    vertex 1.5999999999999988 93.79999999999998 11.899999999999997
    vertex 4.4 93.79999999999998 17.900000000000002
    vertex 1.6000000000000005 93.79999999999998 17.900000000000002
  endloop
endfacet
facet normal 0.0 -1.0 0.0
  outer loop
    vertex 1.6000000000000005 93.79999999999998 6.057465038717863
    vertex 1.6000000000000005 93.79999999999998 1.7999999999999996
    vertex 3.591214000000001 93.79999999999998 6.057465038717862
  endloop
endfacet
facet normal 0.9999999793220664 0.00013965141793538999 -0.00014782878052488577
  outer loop
    vertex 3.5999999999999948 90.49999999999999 1.7999999999999996
    vertex 3.5912139999999964 89.09999999999998 6.1000000000000005
    vertex 3.5999999999999948 89.09999999999998 1.7999999999999996
  endloop
endfacet
facet normal 0.9999999793220664 0.00013965141793538999 -0.00014782878052488577
  outer loop
    vertex 3.591213999999995 84.99999999999999 6.1000000000000005
    vertex 3.591213999999994 86.39999999999998 7.5
    vertex 3.591213999999995 84.99999999999999 11.9
  endloop
endfacet
facet normal 0.9999999793220664 0.00013965141793538999 -0.00014782878052488577
  outer loop
    vertex 3.591213999999994 86.39999999999998 7.5
    vertex 3.591213999999995 84.99999999999999 6.1000000000000005
    vertex 3.5912139999999964 89.09999999999998 6.1000000000000005
  endloop
endfacet
facet normal 0.9999999793220664 0.00013965141793538999 -0.00014782878052488577
  outer loop
    vertex 3.591213999999994 86.39999999999998 7.5
    vertex 3.5912139999999964 89.09999999999998 6.1000000000000005
    vertex 3.5912139999999937 93.19999999999999 7.5
  endloop
endfacet
facet normal 0.9999999793220664 0.00013965141793538999 -0.00014782878052488577
  outer loop
    vertex 3.5912139999999937 93.19999999999999 7.5
    vertex 3.5912139999999964 89.09999999999998 6.1000000000000005
    vertex 3.5912139999999986 90.49999999999999 6.100000000000003
  endloop
endfacet
facet normal 0.9999999793220664 0.00013965141793538999 -0.00014782878052488577
  outer loop
    vertex 3.5912139999999986 90.49999999999999 6.100000000000003
    vertex 3.5912139999999964 89.09999999999998 6.1000000000000005
    vertex 3.5999999999999948 90.49999999999999 1.7999999999999996
  endloop
endfacet
facet normal 0.9999999793220664 0.00013965141793538999 -0.00014782878052488577
  outer loop
    vertex 3.5912139999999937 93.19999999999999 7.5
    vertex 3.5912139999999986 90.49999999999999 6.100000000000003
    vertex 3.5912139999999986 93.79999999999998 6.100000000000003
  endloop
endfacet
facet normal 0.9999999793220664 0.00013965141793538999 -0.00014782878052488577
  outer loop
    vertex 3.5912139999999937 93.19999999999999 7.5
    vertex 3.5912139999999986 93.79999999999998 6.100000000000003
    vertex 3.5912139999999964 93.19999999999999 10.5
  endloop
endfacet
facet normal 0.9999999793220664 0.00013965141793538999 -0.00014782878052488577
  outer loop
    vertex 3.591213999999995 84.99999999999999 11.9
    vertex 3.591213999999994 86.39999999999998 10.5
    vertex 3.5912139999999964 89.09999999999998 11.9
  endloop
endfacet
facet normal 0.9999999793220664 0.00013965141793538999 -0.00014782878052488577
  outer loop
    vertex 3.591213999999994 86.39999999999998 10.5
    vertex 3.591213999999995 84.99999999999999 11.9
    vertex 3.591213999999994 86.39999999999998 7.5
  endloop
endfacet
facet normal 0.9999999793220664 0.00013965141793538999 -0.00014782878052488577
  outer loop
    vertex 3.5912139999999964 89.09999999999998 11.9
    vertex 3.591213999999994 86.39999999999998 10.5
    vertex 3.5912139999999964 93.19999999999999 10.5
  endloop
endfacet
facet normal 0.9999999793220664 0.00013965141793538999 -0.00014782878052488577
  outer loop
    vertex 3.5912139999999964 89.09999999999998 11.9
    vertex 3.5912139999999964 93.19999999999999 10.5
    vertex 3.5912139999999986 90.49999999999999 11.899999999999997
  endloop
endfacet
facet normal 0.9999999793220664 0.00013965141793538999 -0.00014782878052488577
  outer loop
    vertex 3.5912139999999964 89.09999999999998 11.9
    vertex 3.5912139999999986 90.49999999999999 11.899999999999997
    vertex 3.5999999999999948 89.09999999999998 17.900000000000002
  endloop
endfacet
facet normal 0.9999999793220664 0.00013965141793538999 -0.00014782878052488577
  outer loop
    vertex 3.5912139999999986 90.49999999999999 11.899999999999997
    vertex 3.5912139999999964 93.19999999999999 10.5
    vertex 3.5912139999999986 93.79999999999998 11.899999999999997
  endloop
endfacet
facet normal 0.9999999793220664 0.00013965141793538999 -0.00014782878052488577
  outer loop
    vertex 3.5912139999999986 93.79999999999998 11.899999999999997
    vertex 3.5912139999999964 93.19999999999999 10.5
    vertex 3.5912139999999986 93.79999999999998 6.100000000000003
  endloop
endfacet
facet normal 0.9999999793220664 0.00013965141793538999 -0.00014782878052488577
  outer loop
    vertex 3.5912139999999986 93.79999999999998 11.899999999999997
    vertex 3.5912139999999986 93.79999999999998 6.100000000000003
    vertex 3.591214000000001 93.79999999999998 9.542534961282138
  endloop
endfacet
facet normal 0.9999999793220664 0.00013965141793538999 -0.00014782878052488577
  outer loop
    vertex 3.5999999999999948 90.49999999999999 17.900000000000002
    vertex 3.5999999999999948 89.09999999999998 17.900000000000002
    vertex 3.5912139999999986 90.49999999999999 11.899999999999997
  endloop
endfacet
facet normal 0.0 0.0 1.0
  outer loop
    vertex 3.591213999999995 84.99999999999999 11.9
    vertex 1.5999999999999985 89.09999999999998 11.9
    vertex 1.599999999999997 84.99999999999999 11.9
  endloop
endfacet
facet normal 0.0 0.0 1.0
  outer loop
    vertex 1.5999999999999985 89.09999999999998 11.9
    vertex 3.591213999999995 84.99999999999999 11.9
    vertex 3.5912139999999964 89.09999999999998 11.9
  endloop
endfacet
facet normal 0.0 0.0 1.0
  outer loop
    vertex 3.5912139999999986 90.49999999999999 11.899999999999997
    vertex 1.5999999999999988 93.79999999999998 11.899999999999997
    vertex 1.5999999999999985 90.49999999999999 11.899999999999997
  endloop
endfacet
facet normal 0.0 0.0 1.0
  outer loop
    vertex 1.5999999999999988 93.79999999999998 11.899999999999997
    vertex 3.5912139999999986 90.49999999999999 11.899999999999997
    vertex 3.5912139999999986 93.79999999999998 11.899999999999997
  endloop
endfacet
facet normal 0.0 0.0 -1.0
  outer loop
    vertex 1.5999999999999985 89.09999999999998 6.1000000000000005
    vertex 3.591213999999995 84.99999999999999 6.1000000000000005
    vertex 1.599999999999997 84.99999999999999 6.1000000000000005
  endloop
endfacet
facet normal 0.0 0.0 -1.0
  outer loop
    vertex 3.591213999999995 84.99999999999999 6.1000000000000005
    vertex 1.5999999999999985 89.09999999999998 6.1000000000000005
    vertex 3.5912139999999964 89.09999999999998 6.1000000000000005
  endloop
endfacet
facet normal 0.0 0.0 -1.0
  outer loop
    vertex 1.5999999999999988 93.79999999999998 6.100000000000003
    vertex 3.5912139999999986 90.49999999999999 6.100000000000003
    vertex 1.5999999999999985 90.49999999999999 6.100000000000003
  endloop
endfacet
facet normal 0.0 0.0 -1.0
  outer loop
    vertex 3.5912139999999986 90.49999999999999 6.100000000000003
    vertex 1.5999999999999988 93.79999999999998 6.100000000000003
    vertex 3.5912139999999986 93.79999999999998 6.100000000000003
  endloop
endfacet
facet normal 0.0 -1.0 0.0
  outer loop
    vertex 3.5912139999999986 93.79999999999998 6.100000000000003
    vertex 1.6000000000000005 93.79999999999998 6.057465038717863
    vertex 3.591214000000001 93.79999999999998 6.057465038717862
  endloop
endfacet
facet normal 0.0 -1.0 0.0
  outer loop
    vertex 1.6000000000000005 93.79999999999998 6.057465038717863
    vertex 3.5912139999999986 93.79999999999998 6.100000000000003
    vertex 1.5999999999999988 93.79999999999998 6.100000000000003
  endloop
endfacet
endsolid PushBarMX
